<svg width="497" height="208" viewBox="0 0 497 208" fill="none" xmlns="http://www.w3.org/2000/svg">
<path d="M488.5 103.712C488.5 112.207 481.971 120.429 469.836 128.005C457.726 135.564 440.17 142.39 418.432 148.13C374.962 159.607 314.882 166.712 248.5 166.712C182.118 166.712 122.038 159.607 78.5685 148.13C56.83 142.39 39.274 135.564 27.1645 128.005C15.0287 120.429 8.5 112.207 8.5 103.712C8.5 95.217 15.0287 86.9947 27.1645 79.419C39.274 71.8597 56.83 65.0337 78.5685 59.2941C122.038 47.8167 182.118 40.7119 248.5 40.7119C314.882 40.7119 374.962 47.8167 418.432 59.2941C440.17 65.0337 457.726 71.8597 469.836 79.419C481.971 86.9947 488.5 95.217 488.5 103.712Z" stroke="#9EAF7C"/>
<path d="M484.961 62.6494C486.415 71.0191 481.389 80.2372 470.728 89.7776C460.091 99.2973 443.961 109.026 423.526 118.401C382.661 137.146 324.682 154.426 259.279 165.784C193.876 177.141 133.466 180.421 88.674 176.55C66.2741 174.615 47.8091 170.893 34.5847 165.517C21.3317 160.13 13.4925 153.146 12.039 144.776C10.5856 136.406 15.6112 127.188 26.2718 117.648C36.9094 108.128 53.0387 98.399 73.4745 89.0246C114.339 70.2789 172.318 52.9994 237.721 41.6417C303.124 30.2839 363.534 27.0044 408.326 30.8751C430.726 32.8107 449.191 36.5322 462.415 41.9082C475.668 47.2958 483.508 54.2798 484.961 62.6494Z" stroke="#9EAF7C"/>
</svg>
