<svg width="497" height="217" viewBox="0 0 497 217" fill="none" xmlns="http://www.w3.org/2000/svg">
<path d="M488.45 103.406C488.624 111.899 482.264 120.253 470.286 128.075C458.334 135.881 440.921 143.064 419.304 149.247C376.079 161.611 316.157 169.944 249.789 171.301C183.42 172.659 123.208 166.784 79.5125 156.199C57.6612 150.905 39.9693 144.439 27.7076 137.129C15.4194 129.803 8.72397 121.716 8.55023 113.223C8.37648 104.73 14.7356 96.3758 26.7139 88.5535C38.6663 80.7481 56.0791 73.5645 77.6956 67.3814C120.921 55.0174 180.843 46.6853 247.211 45.3276C313.58 43.9699 373.792 49.8444 417.488 60.4303C439.339 65.7242 457.031 72.1896 469.292 79.4997C481.581 86.8256 488.276 94.9126 488.45 103.406Z" stroke="#9EAF7C"/>
<path d="M484.072 62.424C485.696 70.7622 480.86 80.0812 470.397 89.8376C459.956 99.5729 444.029 109.63 423.789 119.42C383.317 138.998 325.704 157.459 260.546 170.153C195.389 182.846 135.059 187.36 90.1972 184.406C67.7624 182.929 49.2251 179.586 35.8936 174.482C22.5332 169.366 14.5527 162.544 12.9284 154.206C11.3041 145.868 16.1401 136.549 26.6034 126.792C37.044 117.057 52.9709 107 73.2108 97.2097C113.684 77.6321 171.297 59.1704 236.454 46.4774C301.611 33.7843 361.941 29.27 406.803 32.2237C429.238 33.7008 447.775 37.0439 461.107 42.1482C474.467 47.2636 482.447 54.0858 484.072 62.424Z" stroke="#9EAF7C"/>
</svg>
