<svg width="497" height="211" viewBox="0 0 497 211" fill="none" xmlns="http://www.w3.org/2000/svg">
<path d="M484.704 147.616C483.199 155.977 475.317 162.913 462.031 168.219C448.774 173.513 430.287 177.121 407.875 178.919C363.06 182.514 302.672 178.863 237.34 167.104C172.008 155.344 114.136 137.709 73.3875 118.712C53.0097 109.212 36.9406 99.3843 26.3617 89.7994C15.7599 80.1936 10.791 70.9448 12.2959 62.5842C13.8008 54.2237 21.6828 47.288 34.9687 41.982C48.2258 36.6874 66.7134 33.0795 89.1248 31.2815C133.94 27.6863 194.328 31.3371 259.66 43.0967C324.993 54.8562 382.864 72.4918 423.613 91.4883C443.99 100.988 460.06 110.816 470.638 120.401C481.24 130.007 486.209 139.256 484.704 147.616Z" stroke="#9EAF7C"/>
<path d="M488.495 106.576C488.443 115.071 481.864 123.253 469.682 130.754C457.526 138.238 439.929 144.956 418.155 150.562C374.616 161.772 314.493 168.508 248.113 168.1C181.732 167.691 121.697 160.218 78.2987 148.473C56.5959 142.6 39.0822 135.666 27.0193 128.033C14.9303 120.382 8.45233 112.12 8.50455 103.625C8.55677 95.1306 15.1359 86.9486 27.318 79.4477C39.4738 71.9629 57.0714 65.245 78.8447 59.6391C122.384 48.4291 182.507 41.6938 248.887 42.1019C315.268 42.5099 375.303 49.9839 418.701 61.7283C440.404 67.6014 457.918 74.5352 469.981 82.1688C482.07 89.8189 488.548 98.0812 488.495 106.576Z" stroke="#9EAF7C"/>
</svg>
