<svg width="100" height="123" viewBox="0 0 100 123" fill="none" xmlns="http://www.w3.org/2000/svg">
<g clip-path="url(#clip0_15_4918)">
<path fill-rule="evenodd" clip-rule="evenodd" d="M48.8189 7.08707C50.3937 6.29962 51.496 5.03969 52.7559 3.93726C54.6456 2.36235 56.3779 -8.64267e-07 59.685 0.15749C60.7874 1.41741 60.1575 3.62228 60.3149 5.66965C60.4724 7.08707 60.7874 9.13444 60.9449 10.7093C63.937 9.29193 66.1417 7.87452 69.9212 7.08707C71.0236 6.77209 74.1732 5.98463 74.4882 7.40205C74.8031 8.34699 73.7008 9.60691 73.5433 10.3944C72.7559 13.2292 72.2834 16.5365 71.811 19.2138C73.7008 19.3713 75.9055 19.3713 78.2677 19.3713C80.3149 19.3713 83.4645 18.8988 83.937 20.3163C84.4094 22.0487 82.8346 22.6786 82.0472 23.4661C80.3149 25.356 78.8976 28.1908 77.4803 30.2382C80.3149 30.5531 82.3622 31.4981 84.5669 32.6005C85.8268 33.2305 87.874 34.4904 88.0315 35.5928C88.189 36.5378 87.2441 37.6402 86.4567 38.1127C84.4094 39.8451 81.2598 40.9475 79.5275 42.9949C81.8897 44.8848 84.5669 46.3022 87.0866 48.1921C88.0315 48.822 89.6063 49.767 89.6063 50.7119C89.6063 51.9718 87.2441 53.2318 85.9842 53.5467C84.4094 54.0192 82.8346 54.0192 81.5748 54.4917C80.4724 54.8067 79.3701 55.4366 78.4252 55.7516C80.1575 58.2714 82.3622 60.1613 83.4645 62.9962C83.7795 64.0986 85.5118 64.5711 85.0393 66.146C84.2519 68.3508 78.2677 65.9885 76.6929 65.831C75.5905 65.6735 74.1732 65.9885 73.5433 65.831C72.7559 69.2958 71.9685 72.6031 69.1338 74.0205C71.1811 80.3201 74.9606 86.7772 77.6378 93.3918C78.1102 94.6517 79.2126 95.5967 79.685 96.8566C80 97.4865 80 97.959 80.1575 98.589C80.6299 99.5339 81.5748 100.164 82.0472 101.109C82.3622 101.739 82.3622 102.369 82.6771 103.156C83.1496 104.101 83.937 105.204 84.2519 106.149C85.0393 109.613 83.3071 110.401 80.4724 109.141C77.7952 108.038 75.748 106.306 73.7008 104.731C73.0708 107.881 75.1181 114.338 72.2834 114.653C70.8661 114.811 69.1338 112.606 67.874 111.661C65.1968 109.771 61.8897 108.038 59.2126 106.306C58.8976 108.196 58.4252 109.928 57.9527 112.133C57.6378 113.393 57.4803 116.858 55.5905 116.7C54.1732 116.7 53.8582 114.181 53.3858 112.763C52.9134 111.031 52.2834 109.613 51.811 108.353C50.7086 105.046 49.9212 101.896 48.9764 99.0615C46.7716 92.4469 44.5669 86.9347 42.0472 81.7375C40.1575 86.3047 37.9527 92.2894 36.2204 97.8015C34.8031 102.684 33.5433 105.834 32.4409 110.401C31.9685 112.291 31.6535 115.125 31.1811 117.33C30.7086 119.378 30.0787 122.528 28.3464 123C26.1417 123.472 25.1968 121.74 24.2519 120.638C22.2047 122.685 20.9449 120.323 20 118.275C19.0551 116.228 18.2677 114.81 17.7953 112.763C16.3779 112.763 15.433 114.338 14.0157 115.283C13.7008 115.598 12.9134 115.598 12.4409 115.913C11.496 116.385 9.44879 117.96 8.03147 117.015C6.77163 116.228 7.55903 113.708 7.71651 112.606C8.18895 109.141 8.18895 105.991 9.13383 103.471C7.55903 103.786 6.29919 104.889 4.56691 105.676C3.62202 106.149 -2.38419e-05 107.566 -0.314984 105.361C-0.472465 104.416 1.73226 101.739 2.67714 100.321C3.7795 98.904 4.72439 96.6991 5.66927 95.2817C6.29919 94.6517 6.77163 94.4942 7.08659 94.0218C7.40155 93.3918 7.55903 92.7618 7.87399 92.2894C9.13383 90.3995 10.2362 88.6671 11.3386 86.6197C11.811 85.5173 12.126 84.5723 12.5984 83.4699C13.0708 82.525 13.8582 81.7375 14.3307 80.7926C15.5905 78.5877 16.6929 76.5403 17.6378 74.3355C18.7401 71.8156 20.3149 69.2958 20.6299 66.4609C21.1023 62.5237 20.1575 59.5314 21.4173 56.5391C19.2126 57.169 16.063 57.169 13.0708 57.484C12.126 57.6415 11.496 57.9565 10.8661 57.6415C10.0787 57.0115 10.7086 54.9641 11.0236 54.3342C12.4409 51.4994 15.2756 48.6645 17.1653 46.4597C15.5905 45.3572 14.0157 44.7273 12.2834 43.4674C11.0236 42.5224 8.34643 41.42 8.50391 39.5301C8.66139 38.4277 10.3937 37.7977 11.496 37.1677C13.7008 35.7503 15.748 34.9629 18.1102 33.5455C17.1653 30.7106 14.3307 27.8758 13.0708 24.411C12.5984 23.3086 11.6535 21.7337 12.4409 20.7887C13.5433 19.2138 19.5275 20.9462 21.7323 20.3163C22.6771 17.009 20.3149 8.97695 23.1496 7.71703C24.5669 7.08707 28.0315 8.50448 28.9764 8.97695C30.8661 9.92189 32.126 10.7093 34.0157 11.3393C34.4882 9.92189 35.748 8.1895 36.063 5.82714C36.3779 3.77977 35.5905 -0.472472 37.7953 -0.157491C38.7401 -8.64267e-07 42.3622 1.5749 43.3071 2.20486C45.3543 3.77977 46.6142 6.29962 48.8189 7.08707ZM37.7953 9.9219C37.4803 10.5519 37.0079 11.1818 36.6929 11.9693C36.3779 12.9142 36.2205 13.7017 35.748 14.1741C34.3307 15.2766 32.126 13.8592 30.5512 13.0717C28.5039 12.1268 27.2441 10.8668 24.7244 10.7093C24.5669 14.4891 24.8819 18.7414 24.5669 22.3636C22.8346 23.9385 18.4252 22.8361 15.433 23.1511C16.063 24.8835 17.3228 26.6159 18.4252 28.3483C19.5275 30.0807 21.2598 32.443 20.9449 34.1754C20.7874 35.5928 19.2126 35.7503 17.9527 36.5378C16.2204 37.4827 13.8582 39.0576 12.126 39.8451C13.2283 41.42 15.1181 42.0499 17.0079 42.9949C17.9527 43.4674 20.3149 44.5698 20.4724 45.5147C20.7874 47.4046 18.4252 48.9795 17.4803 50.2394C16.2204 51.8143 15.1181 53.0743 14.3307 54.8067C15.748 54.1767 17.0079 54.6492 18.5827 54.4917C20.3149 54.3342 21.8897 52.9168 23.4645 53.2318C25.6693 53.5467 24.2519 56.3816 23.937 58.2714C23.622 60.6338 23.3071 63.4686 23.622 66.146C25.3543 65.6735 26.7716 65.0435 28.5039 64.2561C29.6063 63.7836 32.5984 62.3662 33.8582 62.6812C35.2756 62.9962 35.9055 65.831 36.3779 67.2484C37.1653 69.2958 37.6378 70.8707 38.1102 72.6031C39.8425 71.6581 40.6299 69.2958 41.8897 67.5634C42.3622 66.9334 43.4645 65.831 44.4094 65.831C45.9842 65.831 47.4016 68.3508 48.8189 69.6108C50.8661 71.3431 52.5984 72.9181 54.4882 74.6504C54.9606 73.3905 55.9055 72.2881 56.5354 70.8707C57.3228 68.9808 58.1102 64.7286 60.1575 64.4136C61.5748 64.2561 62.5197 65.9885 63.4645 66.7759C65.3543 68.6658 66.9291 69.6108 68.6614 71.1857C69.7638 70.2407 70.3937 68.3508 70.5512 66.146C70.7086 65.0435 70.2362 63.4686 70.7086 62.6812C71.811 60.6338 73.2283 63.3111 74.0157 63.6261C74.9606 63.9411 75.9055 63.4686 77.0079 63.6261C78.4252 63.7836 79.5275 64.5711 80.7874 64.5711C79.5275 62.2087 77.9527 60.1613 76.2205 58.114C74.0157 55.4366 75.5905 54.4917 78.2677 53.3892C80.6299 52.4443 83.1496 51.8143 85.6693 51.3419C83.622 49.2945 81.4173 48.3496 78.8976 46.6172C77.6378 45.8297 75.748 44.8848 75.9055 43.3099C76.063 42.6799 77.0079 42.0499 77.6378 41.42C79.8425 39.5301 82.0472 38.1127 84.2519 36.8528C82.6771 35.4353 80 33.8604 77.4803 33.5455C75.748 33.2305 74.4882 33.388 74.1732 32.128C73.7008 30.3956 75.433 28.1908 76.3779 26.9309C77.4803 25.1985 78.5827 24.2535 79.3701 22.5211C76.2205 22.5211 72.9134 22.5211 69.7638 22.5211C68.6614 22.0487 68.5039 20.4738 68.8189 19.0563C69.1338 16.2215 70.3937 12.2843 70.7086 9.9219C67.559 10.3944 65.5118 11.8118 63.1496 12.9142C62.3622 13.2292 61.4173 14.1741 60.3149 14.0166C57.1653 13.7017 58.1102 6.77209 57.6378 3.46479C55.433 4.72471 53.3858 7.08707 51.3386 8.66197C50.7086 9.13444 49.6063 9.9219 48.9764 9.9219C47.7165 9.9219 45.6693 8.34699 44.5669 7.40205C42.5197 5.82714 41.7323 3.77977 38.8976 3.3073C38.8976 5.35467 38.5827 7.71703 37.7953 9.9219ZM27.559 85.5173C27.2441 86.3047 26.6141 86.9347 26.4567 87.7222C26.1417 88.3521 26.2992 90.0845 25.3543 90.0845C23.937 90.0845 25.0393 87.8796 25.0393 87.7222C25.8267 85.5173 26.4567 84.4149 27.4016 82.525C29.7638 77.6428 32.4409 71.8156 32.9134 65.831C32.9134 65.6735 32.7559 65.6735 32.5984 65.516C31.9685 65.9885 31.1811 66.146 30.3937 66.4609C30.0787 68.9808 29.1338 70.2407 28.3464 72.2881C27.0866 75.4379 25.5118 78.2727 24.4094 81.1076C23.7795 82.525 23.7795 84.8873 22.0472 85.3598C21.2598 83.7849 22.5197 82.21 22.9921 80.7926C24.7244 76.2253 27.2441 71.6581 28.8189 67.0909C28.189 67.2484 27.559 67.4059 27.0866 67.7209C26.1417 70.7132 24.7244 73.3905 23.4645 76.0679C22.9921 77.0128 22.3622 77.6428 21.8897 78.4302C21.2598 79.5326 21.4173 81.1076 20.1575 81.7375C18.8976 80.7926 20 79.2177 20.4724 78.2727C20.9449 77.1703 21.8897 76.2253 22.3622 75.2804C23.4645 72.9181 24.5669 70.5557 25.1968 68.3508C24.5669 68.8233 23.937 68.9808 22.8346 68.9808C20.6299 76.3828 16.2204 81.58 13.5433 88.3521C21.4173 90.872 25.8267 96.8566 32.9134 100.006C34.3307 96.5416 34.8031 92.7618 36.3779 89.2971C37.0079 87.7222 37.4803 85.8323 38.1102 84.0999C39.0551 81.7375 40.3149 79.8476 40.1575 77.3278C42.3622 75.2804 42.9921 71.8156 44.5669 69.1383C42.8346 70.5557 41.8897 73.0755 40.1575 74.493C38.8976 79.3752 36.5354 83.4699 34.4882 87.4072C34.1732 88.1946 34.3307 89.2971 33.0708 89.2971C32.126 88.3521 33.0708 86.9347 33.5433 86.1472C35.2756 83.1549 36.8504 79.6901 37.9527 76.2253C36.8504 76.6978 36.2204 75.1229 35.9055 75.5954C34.3307 79.0602 32.7559 83.1549 31.3386 86.7772C31.0236 87.5647 30.5512 90.557 29.2913 90.0845C28.6614 89.927 28.9764 88.9821 28.9764 88.5096C29.4488 86.7772 30.5512 84.8873 31.0236 83.4699C31.9685 81.1076 32.7559 78.4302 33.5433 76.5403C34.1732 75.1229 35.1181 74.0205 34.9606 72.1306C34.3307 71.1857 34.1732 69.7682 33.7008 68.8233C32.5984 74.9654 29.9212 80.4776 27.559 85.5173ZM61.2598 73.0755C62.2047 75.9104 62.9921 78.7452 63.937 81.58C64.2519 82.3675 65.1968 83.6274 63.937 84.0999C62.9921 83.6274 62.6771 82.3675 62.3622 81.4225C61.2598 78.1152 60.3149 74.6504 59.0551 71.6581C58.7401 72.6031 58.2677 73.3905 57.7953 74.0205C58.5827 76.3828 59.8425 79.3752 60.4724 82.0525C60.6299 82.8399 61.4173 84.4148 60.1575 84.7298C58.7401 83.9424 59.0551 81.7375 58.4252 80.3201C57.9527 78.7452 57.3228 77.1703 56.6929 75.9104C55.9055 76.6978 55.748 77.8003 54.3307 77.8003C54.8031 80.3201 56.2204 81.7375 56.3779 84.4148C56.6929 84.7298 57.4803 85.9898 56.6929 86.3047C54.9606 86.3047 55.2756 84.4148 54.9606 83.3124C54.4882 81.4225 53.2283 78.9027 52.2834 76.8553C51.6535 75.2804 50.7086 74.178 49.4488 73.548C50.8661 77.6428 52.126 81.895 53.0708 86.4622C51.3386 88.1946 51.1811 84.2574 50.8661 83.1549C49.6063 79.0602 48.5039 73.863 46.7716 71.1857C46.1417 71.9731 45.8267 72.9181 45.3543 74.0205C46.4567 76.8553 47.7165 80.3201 48.6614 83.1549C48.9764 83.9424 50.0787 85.3598 48.8189 85.9898C47.874 85.8323 47.7165 84.5723 47.4016 83.7849C46.4567 81.1076 45.5118 78.2727 44.4094 75.7529C44.0945 76.5403 43.622 77.3278 43.3071 78.1152C45.8267 82.525 47.7165 87.5647 49.7638 92.6043C52.5984 92.7618 55.433 92.6043 57.4803 92.1319C62.6771 90.872 67.559 88.5096 71.3386 85.9898C69.9212 83.7849 69.2913 80.7926 68.0315 78.2727C67.559 77.4853 66.9291 76.6978 66.7716 75.9104C66.4567 74.6504 66.6141 73.548 65.5118 72.9181C65.3543 72.4456 65.5118 72.2881 65.5118 71.8156C65.0393 71.3431 64.2519 71.0282 63.7795 70.5557C65.3543 73.863 66.2992 78.1152 67.2441 81.7375C67.4016 82.3675 68.3464 83.9424 66.9291 83.9424C65.9842 83.9424 65.6693 81.265 65.3543 80.1626C64.2519 75.5954 62.5197 71.8156 61.1023 68.0359C60.9449 68.0359 60.9449 67.8784 60.7874 67.7209C59.5275 69.6108 60.6299 71.1857 61.2598 73.0755ZM50.7086 95.4392C51.0236 96.3841 51.3386 97.3291 51.6535 98.1165C53.7008 97.644 55.2756 97.8015 57.3228 97.644C58.8976 97.4865 60.7874 96.6991 62.3622 95.9117C65.3543 94.6517 67.874 93.2343 70.8661 92.2894C71.496 91.5019 72.4409 91.1869 73.2283 90.557C73.0708 89.927 72.9134 89.1396 72.4409 88.6671C66.2992 92.1319 60.3149 95.4392 50.7086 95.4392ZM26.9291 100.006C22.3622 96.5416 18.2677 92.6044 11.9685 90.872C11.496 91.1869 11.3386 91.9744 11.0236 92.4469C12.9134 93.3918 14.4882 94.0218 16.063 94.9667C16.8504 95.4392 17.3228 96.2266 18.1102 96.6991C18.5827 97.0141 19.0551 97.0141 19.5275 97.1716C21.5748 98.4315 22.9921 100.321 24.8819 101.739C26.9291 103.314 29.2913 103.629 31.496 104.889C31.6535 104.259 31.9685 103.786 31.9685 102.999C30.5512 101.739 28.8189 100.794 26.9291 100.006ZM79.8425 102.684C79.5275 101.896 78.5826 101.266 78.1102 100.636C77.6378 99.8489 77.4803 98.904 77.1653 97.959C76.5354 96.3841 74.9606 95.1242 74.8031 93.2343C74.8031 93.2343 74.8031 93.0768 74.6456 93.0768C73.5433 93.3918 72.9134 94.4942 71.811 94.8092C71.496 94.9667 71.1811 94.8092 70.8661 94.9667C69.9212 95.2817 69.1338 96.0691 68.1889 96.3841C65.0393 97.644 61.2598 99.8489 57.6378 100.164C56.063 100.321 54.3307 100.321 52.5984 100.479C53.2283 104.259 54.6456 107.251 55.5905 110.558C56.8504 108.038 55.5905 102.369 59.3701 103.156C60.1575 103.314 61.2598 104.574 62.2047 105.046C63.3071 105.676 64.4094 106.149 65.1968 106.778C67.4016 108.038 69.2913 109.613 71.0236 110.558C71.811 107.251 68.9764 100.479 73.7008 101.109C76.2204 102.841 78.1102 105.361 81.4173 106.464C80.4724 105.519 80.4724 103.944 79.8425 102.684ZM24.7244 104.574C22.3622 103.156 20.6299 100.794 18.2677 99.3764C17.7953 99.0615 17.1653 99.0615 16.5354 98.7465C15.9055 98.4315 15.5905 97.644 15.1181 97.3291C13.7008 96.2266 11.1811 95.4392 9.60627 94.8092C8.03147 97.4866 6.45667 100.164 4.72439 102.684C6.29919 102.211 11.6535 97.644 12.4409 101.109C12.7559 102.841 11.496 105.519 11.1811 108.196C11.0236 110.243 10.8661 112.606 10.3937 114.181C12.2834 113.551 13.0708 112.291 14.6456 111.346C15.1181 111.031 15.5905 110.873 16.2204 110.558C17.0079 110.086 18.1102 108.038 19.2126 108.196C20.6299 108.196 20.3149 109.771 20.4724 111.188C20.7874 113.708 22.3622 115.598 23.1496 117.488C23.4645 116.858 23.622 116.543 24.2519 116.543C26.4567 116.228 26.1417 119.85 27.874 120.323C29.1338 116.228 29.7638 111.503 30.7086 107.251C28.5039 106.621 26.2992 105.676 24.7244 104.574Z" fill="#9EAF7C"/>
<path fill-rule="evenodd" clip-rule="evenodd" d="M13.2284 8.34696C13.3859 9.4494 12.756 9.76438 12.1261 10.0794C10.0788 12.9142 7.40165 16.2215 6.92921 20.4737C6.77173 21.4187 7.40165 22.9936 5.98433 23.1511C5.19693 22.6786 5.35441 21.5762 5.35441 20.7887C5.82685 15.749 9.4489 11.0243 12.2835 8.03198C12.756 8.03198 13.0709 8.03198 13.2284 8.34696Z" fill="#9EAF7C"/>
<path fill-rule="evenodd" clip-rule="evenodd" d="M7.55901 12.7567C7.24405 14.4891 5.98421 15.5915 5.66924 17.1664C5.51176 17.7964 5.98421 18.7413 5.03932 18.8988C2.99208 17.9539 5.82673 12.5992 6.77161 12.4417C7.08657 12.4417 7.24405 12.5992 7.55901 12.7567Z" fill="#9EAF7C"/>
<path fill-rule="evenodd" clip-rule="evenodd" d="M41.8898 14.3316C43.7796 13.8591 45.0394 15.119 44.252 16.379C43.937 16.8514 42.0473 17.3239 41.2599 17.1664C39.5276 16.694 40.4725 14.6466 41.8898 14.3316Z" fill="#9EAF7C"/>
<path fill-rule="evenodd" clip-rule="evenodd" d="M52.2835 17.3239C50.8662 17.9539 47.2441 17.9539 45.8268 17.3239C43.937 13.8591 54.3307 13.8591 52.2835 17.3239Z" fill="#9EAF7C"/>
<path fill-rule="evenodd" clip-rule="evenodd" d="M36.6928 18.1114C34.1732 19.6863 33.3858 21.7336 31.496 24.411C29.7637 26.7733 28.1889 29.2932 26.7716 32.128C25.8267 33.8604 24.8818 35.7503 24.5669 37.7977C24.4094 39.0576 24.8818 40.9475 22.9921 40.79C20.9448 40.475 21.7322 34.6479 22.8346 33.7029C23.307 33.5454 23.9369 33.5454 24.4094 33.8604C26.2991 29.7657 28.5039 25.8284 31.181 22.5211C30.2362 21.8911 29.6062 20.6312 30.8661 19.5288C31.0236 19.2138 32.1259 18.7413 33.2283 17.9539C34.6456 16.8514 35.5905 15.5915 37.4802 15.434C40.3149 14.8041 39.055 18.4263 36.6928 18.1114Z" fill="#9EAF7C"/>
<path fill-rule="evenodd" clip-rule="evenodd" d="M59.6851 18.1114C60.1576 18.5839 60.3151 19.0564 60.1576 19.6863C59.3702 22.2062 55.4332 19.3713 54.4883 18.5839C54.6458 14.6466 58.1103 17.7964 59.6851 18.1114Z" fill="#9EAF7C"/>
<path fill-rule="evenodd" clip-rule="evenodd" d="M26.4566 38.4276C26.1416 36.8527 27.0865 35.1203 27.7164 34.0179C30.5511 28.8207 34.6456 25.0409 36.5353 18.7413C38.5826 17.6389 37.1653 20.7887 36.8503 21.1037C36.0629 23.1511 35.2755 25.1984 34.1731 26.9308C33.5432 27.8758 32.5983 28.6632 31.9684 29.6082C30.7086 31.4981 29.2913 33.5454 28.3464 35.7503C28.0314 36.8527 28.0314 38.7426 26.4566 38.4276Z" fill="#9EAF7C"/>
<path fill-rule="evenodd" clip-rule="evenodd" d="M40.1574 18.8989C40.3149 19.6863 39.685 20.0013 39.5275 20.6313C38.7401 22.3636 38.4251 24.5685 37.4802 26.3009C37.0078 27.0884 36.5354 27.8758 36.0629 28.6633C35.748 29.2932 35.2755 30.7106 34.1732 30.2382C33.8582 29.2932 34.6456 28.3483 35.118 27.5608C35.5905 26.7734 35.9054 25.9859 36.3779 25.1985C37.3228 23.1511 37.9527 20.6313 39.055 18.8989C39.055 18.7414 39.37 18.7414 39.37 18.5839C39.8424 18.4264 39.8424 18.7414 40.1574 18.8989Z" fill="#9EAF7C"/>
<path fill-rule="evenodd" clip-rule="evenodd" d="M63.4645 23.781C63.307 25.9859 61.8897 27.7183 61.1023 29.6082C60.7874 30.5531 60.7874 31.6556 60.1574 32.443C58.1102 32.128 60 29.1357 60.4724 28.0333C61.2598 26.4584 61.8897 24.8835 62.2047 23.1511C61.7322 22.3636 61.2598 22.5211 61.2598 21.7337C60.9448 18.1114 67.7165 22.8361 63.4645 23.781Z" fill="#9EAF7C"/>
<path fill-rule="evenodd" clip-rule="evenodd" d="M54.0158 49.6095C57.7953 49.452 59.2127 50.3969 58.4253 53.8617C58.1103 55.4366 56.8505 56.854 56.693 58.114C57.3229 58.9014 57.7954 58.5864 57.7954 59.5314C57.9528 61.1063 55.1182 61.8937 53.5434 62.0512C51.8111 62.2087 50.0788 62.0512 49.9213 61.1063C49.7639 60.1613 50.8662 59.2164 51.1812 58.5864C51.9686 57.0115 52.5985 54.9641 54.3308 54.4917C55.2757 56.3816 52.441 57.484 52.2835 59.5314C54.9607 59.6889 54.9607 57.799 55.9056 55.7516C56.5355 54.3342 57.7953 53.0743 55.2757 52.6018C52.9135 52.1293 49.1339 52.6018 46.1418 52.2868C45.5119 52.2868 44.7245 51.8143 44.252 51.8143C43.4646 51.6568 42.0473 51.9718 41.5749 51.6568C40.7875 51.1844 40.4725 49.767 41.5749 48.9795C42.6772 48.6645 43.9371 49.2945 45.3544 49.2945C45.6694 42.9949 45.3544 36.0653 45.5119 29.4507C44.252 30.8681 43.1497 32.2855 41.4174 33.8604C40.63 34.6479 37.6379 37.1677 37.1654 34.8054C36.8505 33.388 38.7402 32.6005 39.5276 31.8131C41.1024 30.2381 42.8347 28.6632 43.9371 26.6159C44.7245 25.1985 44.4095 23.781 45.9843 23.6236C47.0867 23.4661 48.1891 23.781 49.7639 23.9385C51.6536 24.2535 53.0709 23.4661 53.7009 24.726C54.0158 25.5134 53.7009 26.9308 53.8583 28.3483C53.8583 29.1357 54.1733 29.9232 54.1733 30.3956C54.3308 32.2855 54.1733 34.0179 54.3308 36.0653C54.8032 40.475 55.1182 45.8297 54.0158 49.6095ZM48.1891 49.137C49.2914 49.137 50.3938 49.137 51.1812 49.452C50.3938 45.9872 51.6536 42.2074 51.1812 37.6402C50.8662 34.1754 50.7087 29.2932 50.3938 26.3009C49.2914 26.4584 48.6615 26.1434 47.8741 25.9859C48.6615 32.758 48.0316 41.8924 48.1891 49.137Z" fill="#9EAF7C"/>
<path fill-rule="evenodd" clip-rule="evenodd" d="M25.6693 24.5685C29.1339 23.6236 26.2993 30.8681 24.252 28.5058C23.1497 27.2459 24.8819 24.726 25.6693 24.5685Z" fill="#9EAF7C"/>
<path fill-rule="evenodd" clip-rule="evenodd" d="M69.4487 29.4507C69.1338 29.7657 68.6613 29.9232 67.8739 29.7657C66.1416 33.8604 63.4645 37.7977 62.2046 42.5224C61.8897 43.7823 61.8897 46.1447 59.9999 46.4596C59.6849 44.8847 60.4723 43.1523 60.9448 41.5774C62.3621 37.0102 65.0393 33.073 66.7716 28.8207C66.6141 28.3482 66.2991 28.0333 66.1416 27.5608C64.7243 30.2381 63.1495 32.9155 61.7322 35.9078C61.2597 36.6952 61.2597 38.2701 59.9999 38.4276C59.055 37.6402 59.8424 36.2228 60.3149 35.4353C61.5747 32.758 63.6219 29.7657 64.7243 27.0883C65.0393 26.1434 64.8818 25.1984 65.6692 24.5685C66.6141 24.5685 66.7715 25.5134 67.8739 25.3559C68.3464 26.6159 70.0786 27.7183 69.4487 29.4507Z" fill="#9EAF7C"/>
<path fill-rule="evenodd" clip-rule="evenodd" d="M69.9213 32.9155C68.6614 36.0653 66.9291 39.2151 65.5118 42.2074C65.0394 43.1524 65.0394 44.5698 63.7795 44.8847C62.8347 43.9398 63.7795 42.5224 64.252 41.5774C65.6693 38.5851 67.7165 35.4353 68.6614 31.813C68.9764 31.813 68.9764 31.4981 69.4488 31.4981C68.9764 30.0807 69.7638 29.2932 70.3937 29.2932C72.2835 29.1357 74.3307 35.2778 71.4961 35.1203C70.3937 35.1203 70.3937 33.8604 69.9213 32.9155Z" fill="#9EAF7C"/>
<path fill-rule="evenodd" clip-rule="evenodd" d="M94.6457 34.8054C95.7481 36.3803 95.9056 40.16 95.5906 43.3099C95.4331 44.2548 95.1182 45.3572 94.8032 46.4597C94.4883 47.5621 94.4883 48.822 94.1733 49.9245C93.8583 51.1844 93.3859 53.2318 91.9686 53.0743C91.4961 51.6568 92.5985 50.2394 92.9135 48.6645C93.5434 45.5147 94.4883 41.735 94.0158 37.4827C93.8583 36.6953 93.3859 36.0653 93.7009 35.1204C94.1733 34.9629 94.1733 34.6479 94.6457 34.8054Z" fill="#9EAF7C"/>
<path fill-rule="evenodd" clip-rule="evenodd" d="M99.055 36.8527C100.63 39.0576 99.8424 43.6248 99.055 46.6171C98.74 47.5621 98.425 50.5544 97.7951 50.7119C96.2203 51.0269 97.4802 47.2471 97.6376 46.4597C98.2676 44.0973 98.74 42.0499 98.5825 39.5301C98.425 38.7426 97.9526 37.9552 98.2676 37.1677C98.5825 37.0102 98.74 36.6952 99.055 36.8527Z" fill="#9EAF7C"/>
<path fill-rule="evenodd" clip-rule="evenodd" d="M70.5512 50.7119C71.6535 49.6095 71.3386 47.2471 73.2283 47.2471C76.6929 47.4046 71.1811 56.854 70.2362 51.4994C69.1338 52.9168 67.7165 54.4917 68.1889 57.0115C67.559 58.114 63.7795 61.1063 61.5748 60.0038C60.6299 59.5314 60.7874 57.799 61.8897 57.484C63.7795 52.4443 66.4567 48.3495 68.9763 44.0973C69.1338 43.4673 69.1338 42.8374 69.7638 42.8374C71.811 42.6799 69.2913 45.9872 69.2913 45.9872C68.8189 46.7746 68.6614 47.5621 68.3464 48.3495C66.9291 50.8694 64.4094 54.4917 63.4645 57.169C64.5669 57.0115 65.6693 55.7516 66.7716 55.1216C68.189 51.3419 70.2362 48.1921 71.3386 44.0973C71.6535 43.9398 71.9685 43.7823 72.2834 43.9398C72.9134 42.6799 71.9685 40.0026 73.0708 39.0576C77.0078 37.9552 75.5905 48.507 72.2834 45.5147C71.811 47.2471 71.1811 48.822 70.5512 50.7119Z" fill="#9EAF7C"/>
<path fill-rule="evenodd" clip-rule="evenodd" d="M24.4093 44.0973C25.0393 44.8848 24.8818 45.9872 25.3542 47.2471C25.8267 48.3496 28.1889 51.1844 25.5117 51.1844C23.6219 51.3419 19.8424 43.6249 24.4093 44.0973Z" fill="#9EAF7C"/>
<path fill-rule="evenodd" clip-rule="evenodd" d="M66.4566 44.7273C66.9291 45.6722 66.1417 46.1447 65.8267 46.9321C64.7243 49.452 63.622 52.1293 62.5196 54.8067C61.8897 56.0666 61.2598 57.3265 60.7873 58.5864C60.3149 59.6889 59.685 61.2638 58.4251 61.5788C57.3228 60.4763 59.0551 58.9014 59.5275 57.6415C60.7873 54.8067 62.2047 52.1293 63.4645 49.2945C64.2519 47.5621 64.4094 45.8297 65.6692 44.7273C66.1417 44.5698 66.1417 44.7273 66.4566 44.7273Z" fill="#9EAF7C"/>
<path fill-rule="evenodd" clip-rule="evenodd" d="M37.3227 51.4994C36.2204 53.0743 35.9054 55.5941 34.0157 56.3816C33.8582 56.2241 33.7007 56.0666 33.5432 55.9091C34.4881 54.1767 34.9605 52.1293 36.5353 51.0269C36.8503 51.1844 37.1653 51.1844 37.3227 51.4994Z" fill="#9EAF7C"/>
<path fill-rule="evenodd" clip-rule="evenodd" d="M28.8189 52.9168C30.2362 52.7593 30.8662 54.4917 32.2835 55.5941C33.3859 56.3816 35.4331 57.0115 34.9607 58.5864C34.3307 60.6338 31.0237 58.114 30.2362 57.3265C29.2914 56.3816 27.5591 55.1216 27.5591 54.1767C27.5591 52.9168 28.504 52.9168 28.8189 52.9168Z" fill="#9EAF7C"/>
<path fill-rule="evenodd" clip-rule="evenodd" d="M39.685 54.0192C40.1574 55.1216 39.5275 56.0666 38.8976 56.539C38.5826 57.6415 38.1102 58.9014 37.0078 59.2164C36.8504 59.0589 36.6929 58.9014 36.5354 58.9014C37.0078 56.854 38.1102 55.5941 38.8976 53.8617C39.2126 53.8617 39.37 54.0192 39.685 54.0192Z" fill="#9EAF7C"/>
<path fill-rule="evenodd" clip-rule="evenodd" d="M42.3623 54.0192C43.4646 55.7516 41.4174 57.0115 41.1024 58.4289C41.5749 58.5864 42.2048 58.7439 42.8347 58.9014C43.7796 58.5864 44.4095 54.3342 45.6694 54.3342C47.5591 54.3342 44.8819 58.4289 44.7245 58.7439C45.1969 59.2164 45.8268 59.3739 45.8268 60.1613C45.9843 62.8386 39.5276 61.4212 39.0552 59.8463C39.6851 57.484 40.9449 56.0666 41.7323 53.8617C41.7323 54.0192 42.0473 54.0192 42.3623 54.0192Z" fill="#9EAF7C"/>
<path fill-rule="evenodd" clip-rule="evenodd" d="M50.3937 55.5941C50.3937 57.0115 49.2913 57.799 48.6614 58.9014C48.1889 59.8464 48.0315 61.4213 46.6141 61.7362C46.6141 61.5788 46.4567 61.5787 46.2992 61.5787C45.8267 60.4763 46.7716 59.3739 47.2441 58.4289C47.874 57.3265 48.5039 56.5391 48.9763 55.4366C49.1338 55.2791 49.2913 55.4366 49.2913 55.1216C49.9212 55.1216 50.0787 55.4366 50.3937 55.5941Z" fill="#9EAF7C"/>
<path fill-rule="evenodd" clip-rule="evenodd" d="M13.7009 72.918C13.8583 74.4929 12.441 75.2804 11.9686 76.5403C11.3387 77.8002 11.0237 79.3751 10.5513 80.6351C8.81897 84.8873 6.45676 89.612 3.62212 93.2343C3.46464 93.8643 2.9922 95.1242 2.20479 94.6517C0.787471 93.8643 3.46464 91.5019 3.7796 91.0294C5.03944 88.9821 6.1418 86.3047 7.55912 83.6274C8.18905 82.3675 8.81897 81.265 9.29141 79.8476C10.3938 77.1703 11.0237 74.4929 13.0709 72.7605C13.3859 72.6031 13.3859 72.7605 13.7009 72.918Z" fill="#9EAF7C"/>
<path fill-rule="evenodd" clip-rule="evenodd" d="M1.41724 89.2971C2.20464 87.0922 3.46448 84.4149 4.8818 82.21C5.19676 81.7375 6.61409 79.2177 7.24401 80.7926C7.40149 81.2651 6.29913 82.6825 5.98417 83.3124C5.51172 84.0999 5.03928 85.0448 4.72432 85.6748C3.93692 87.4072 3.307 90.3995 1.41724 89.2971Z" fill="#9EAF7C"/>
<path fill-rule="evenodd" clip-rule="evenodd" d="M79.8425 92.6044C79.0551 92.2894 78.2677 90.7145 79.685 90.557C80.6299 90.557 80.9449 91.8169 81.4173 92.7619C82.2047 94.3368 83.3071 95.5967 84.5669 97.8016C85.3543 98.904 85.9842 99.6915 86.9291 100.794C87.559 101.581 89.6063 103.471 87.874 103.786C87.4015 103.786 85.9842 102.054 85.5118 101.424C83.3071 98.274 81.5748 95.7542 79.8425 92.6044Z" fill="#9EAF7C"/>
<path fill-rule="evenodd" clip-rule="evenodd" d="M86.6143 93.8643C86.7717 95.5967 91.0237 97.1716 89.6064 98.7465C88.819 98.7465 87.2442 97.4866 86.6143 96.6991C85.9843 95.9117 84.567 93.7068 86.6143 93.8643Z" fill="#9EAF7C"/>
<path fill-rule="evenodd" clip-rule="evenodd" d="M36.5355 109.771C36.063 110.558 36.2205 111.188 36.2205 112.606C36.063 114.023 35.4331 115.598 35.2756 116.7C35.2756 117.33 35.4331 118.905 34.6457 119.063C32.9134 119.22 34.4882 113.866 34.6457 113.078C34.8032 111.188 34.3307 109.928 35.5906 109.298C36.2205 109.141 36.378 109.613 36.5355 109.771Z" fill="#9EAF7C"/>
</g>
<defs>
<clipPath id="clip0_15_4918">
<rect width="100" height="123" fill="white"/>
</clipPath>
</defs>
</svg>
