<svg width="123" height="122" viewBox="0 0 123 122" fill="none" xmlns="http://www.w3.org/2000/svg">
<g clip-path="url(#clip0_15_4884)">
<path fill-rule="evenodd" clip-rule="evenodd" d="M50.2266 1.09911C49.8599 2.01503 49.1267 1.46548 48.3935 1.2823C44.3607 1.09911 38.6781 1.46548 34.6453 1.83184C33.5455 1.83184 31.8957 2.74776 31.1625 1.46548C31.7124 0.549562 33.1789 0.732746 34.0954 0.549562C38.3115 0.183196 42.7109 1.28718e-05 47.2936 1.28718e-05C48.5768 1.28718e-05 50.4099 -0.18317 50.2266 1.09911Z" fill="#9EAF7C"/>
<path fill-rule="evenodd" clip-rule="evenodd" d="M108.702 50.1922C110.168 51.6577 111.818 52.5736 112.918 54.2223C115.301 57.8859 115.484 64.8469 115.484 71.2583C115.484 73.2733 115.851 75.2883 116.034 77.1201C116.218 78.5856 115.851 80.0511 116.034 81.3334C116.401 86.8289 116.584 91.958 116.951 97.4535C117.317 102.033 118.234 109.36 117.134 114.123C116.584 116.505 114.385 119.435 112.551 120.351C109.252 122 101.92 122 96.4203 121.634C91.471 121.267 85.2385 119.619 83.2221 116.138C82.1222 114.306 82.1222 111.742 81.389 109.36C71.307 111.742 55.9091 111.559 44.1774 110.459C40.6945 110.093 37.2117 109.177 34.0954 108.261C30.9792 107.162 27.6796 105.697 25.8465 104.231C24.5634 103.132 22.547 101.117 22.9136 98.7358C23.0969 97.2703 25.8465 96.1712 27.313 95.2553C32.4456 92.5075 37.9449 90.1262 44.544 89.2102C44.544 86.4625 44.544 84.0811 43.8108 82.2493C33.7288 80.7838 22.1804 82.6156 15.398 78.4024C14.2981 77.6697 12.8316 76.937 12.0984 76.021C10.9985 74.7388 10.4486 72.7238 9.53208 70.5256C7.14907 65.0301 6.96576 56.97 6.04922 50.1922C5.31599 45.4295 4.76606 41.0331 4.21613 36.2703C3.66621 31.5075 3.29959 25.6457 4.58275 21.6156C4.76606 21.0661 5.13268 20.3334 5.49929 19.7838C6.04922 18.3184 6.96576 16.3033 7.699 14.2883C8.98216 11.3574 10.4486 7.51054 13.7482 6.59463C15.7646 6.04508 18.3309 6.04508 20.7139 5.67871C32.2623 3.84688 45.6439 4.7628 58.2921 4.21325C60.8585 4.03006 63.6081 4.39643 66.1744 4.21325C71.6737 3.84688 76.4397 3.6637 82.1222 3.6637C84.6886 3.6637 87.4382 3.6637 90.0045 3.84688C91.1044 4.03006 91.8376 4.39643 92.5708 4.39643C94.4039 4.57961 95.8704 4.39643 97.1535 4.57961C101.37 5.12916 104.669 6.41144 106.869 9.52556C108.519 11.9069 109.435 15.3874 109.802 18.5015C110.718 28.2102 108.519 39.2012 108.702 50.1922ZM104.119 42.8649C103.753 43.2313 102.103 45.2463 101.736 43.7808C101.553 43.2313 102.653 42.8649 103.019 42.3153C104.669 40.6667 107.052 39.018 106.502 36.2703C105.036 37.7358 104.119 39.5676 102.286 40.6667C102.103 40.4835 101.736 40.4835 101.736 40.1171C102.469 38.6517 103.753 37.003 105.036 35.7208C105.952 34.6217 107.419 34.0721 106.869 31.8739C105.402 32.973 104.119 35.3544 102.286 36.4535C101.186 35.1712 103.019 34.2553 103.753 33.5226C104.303 32.973 104.853 32.0571 105.402 31.3244C106.502 30.0421 107.602 29.1262 107.236 27.1111C106.319 28.5766 105.219 29.8589 104.119 30.958C103.753 31.5075 103.203 32.2403 102.286 32.2403C102.286 32.0571 102.103 32.0571 102.103 31.8739C102.469 30.2253 103.936 29.4925 104.669 28.3934C105.219 27.6607 105.769 26.7448 106.319 26.012C106.869 25.2793 107.785 24.5466 107.602 23.2643C106.686 23.8138 106.136 24.7298 105.402 25.4625C104.669 26.1952 104.119 27.2943 102.836 27.4775C102.103 26.1952 103.753 25.2793 104.486 24.5466C105.952 22.8979 107.785 21.7988 107.236 18.8679C106.686 19.967 105.952 20.8829 105.402 21.7988C104.303 22.1652 104.303 23.8138 102.836 23.8138C102.836 23.6307 102.469 23.6307 102.469 23.2643C102.653 22.3484 103.753 21.6156 104.486 20.6997C105.402 19.4174 107.052 17.0361 106.502 15.3874C105.769 16.1202 105.219 18.5015 103.753 17.7688C103.936 16.3033 105.586 15.0211 106.136 13.5556C105.952 13.1892 105.769 12.6397 105.586 12.0901C104.669 12.6397 104.853 14.2883 103.386 14.4715C102.103 13.3724 104.486 12.0901 104.486 10.6247C103.203 8.97601 101.553 7.87691 99.5366 7.32736C97.1535 6.77781 94.5872 7.14418 92.2042 6.96099C91.2877 6.96099 90.7377 6.41144 90.0045 6.22826C88.538 6.04508 85.9717 6.04508 84.5053 6.04508C78.4561 5.49553 72.4069 6.22826 67.0909 6.59463C63.6081 6.77781 60.1252 6.77781 56.6424 6.77781C45.8272 7.32736 36.1118 6.77781 26.3965 7.32736C23.6468 7.51054 20.3473 8.24328 17.4143 8.42646C16.1312 8.97601 15.2146 8.97601 14.6647 9.15919C11.9151 9.89192 10.9985 13.3724 9.71539 16.3033C8.98216 18.1352 8.24892 19.967 7.699 21.7988C7.51569 22.5316 7.14907 22.8979 6.96576 23.6307C6.04922 26.3784 6.23253 30.0421 6.41584 33.5226C6.59915 37.1862 7.51569 40.6667 7.88231 44.1472C8.43223 50.5586 9.53208 56.4205 10.082 61.9159C10.8152 68.6937 12.2817 74.922 17.0477 77.3033C19.2474 78.4024 22.1804 78.952 25.2966 79.1352C26.7631 78.2193 27.313 75.8379 29.1461 75.6547C29.5127 77.4865 27.4963 77.8529 26.9464 79.3184C27.6796 79.3184 28.2295 79.5015 28.9628 79.5015C29.5127 78.7688 30.2459 78.0361 30.7959 77.3033C31.3458 76.5706 31.7124 75.2883 32.9956 75.2883C33.5455 77.1201 31.3458 78.2193 30.7959 79.5015C34.6453 80.0511 34.462 75.8379 37.0284 75.6547C37.395 76.5706 36.4784 77.3033 35.9285 77.8529C35.3786 78.5856 34.462 79.1352 34.462 79.6847C35.1953 79.8679 35.9285 80.0511 37.0284 79.8679C37.7616 79.3183 38.3115 78.5856 38.8614 78.0361C39.4114 77.4865 39.9613 76.3874 40.8778 76.2042C40.8778 76.3874 41.0611 76.3874 41.0611 76.3874C41.4278 77.8529 39.0448 78.952 39.2281 79.8679C39.9613 79.8679 40.3279 80.0511 40.8778 80.0511C41.4278 79.1352 42.161 78.5856 42.7109 77.8529C43.2608 77.1202 43.6275 75.8379 44.544 75.6547C45.6439 77.4865 43.0775 78.952 42.3443 80.2343C43.0775 80.2343 43.9941 80.2343 44.7273 80.2343C45.8272 78.5856 47.1103 76.7538 48.5768 75.6547C50.0433 77.3033 46.1938 79.1352 46.3771 80.2343C47.4769 80.2343 48.0269 80.6006 49.1267 80.4174C49.31 80.2343 48.9434 79.8679 49.31 79.5015C50.7765 78.5856 51.5097 75.1051 53.5261 75.6547C52.9762 77.8529 51.1431 78.5856 50.4099 80.6006C51.1431 80.6006 51.693 80.6006 52.4263 80.6006C52.4263 79.8679 53.1595 79.6847 53.3428 78.7688C54.626 78.0361 54.9926 75.6547 56.8257 75.8379C57.009 78.0361 54.626 78.7688 54.076 80.6006C54.8093 80.6006 55.5425 80.6006 56.2758 80.6006C57.009 79.1352 58.1088 78.4024 58.8421 77.3033C59.392 76.7538 59.7586 76.021 60.4918 75.6547C61.775 76.5706 60.3085 77.4865 59.7586 78.2193C59.0254 78.952 58.2921 79.8679 57.9255 80.6006C58.8421 80.6006 59.7586 80.6006 60.6752 80.6006C61.2251 79.6847 61.9583 78.952 62.5082 78.0361C63.0582 77.3033 63.7914 76.2042 64.7079 75.8379C64.7079 76.0211 64.8913 76.021 64.8913 76.021C65.0746 76.937 64.3413 77.8529 63.7914 78.5856C63.2415 79.3184 62.3249 80.0511 62.3249 80.6006C63.9747 80.6006 64.3413 79.1352 65.0746 78.2193C65.8078 77.3033 66.541 76.2042 67.4576 75.4715C69.1073 76.5706 65.2579 79.6847 65.0746 80.6006C68.924 80.6006 68.924 76.937 71.857 76.021C72.7735 77.8529 69.2907 79.1352 69.474 80.2343C70.2072 80.2343 70.9404 80.2343 71.6737 80.2343C73.1401 78.952 73.5067 76.7538 75.3398 75.8379C75.5231 76.0211 75.7065 76.2042 75.8898 76.3874C75.8898 77.1202 75.1565 77.6697 74.7899 78.2193C74.4233 78.7688 73.6901 79.6847 73.8734 80.0511C74.4233 80.0511 74.7899 80.0511 75.3398 80.0511C76.2564 78.5856 77.5395 77.3033 78.6394 75.8379C78.4561 74.922 78.4561 73.8229 78.0895 72.9069C73.3234 73.2733 67.8242 73.0901 62.6915 73.4565C59.5753 73.6397 56.4591 74.006 52.9762 73.6397C44.7273 72.9069 35.7452 73.2733 29.1461 72.7238C28.2295 72.7238 27.313 72.5406 26.7631 72.5406C26.2132 72.3574 26.0298 71.991 25.2966 71.8078C24.5634 71.6247 24.0135 71.8078 23.4635 71.8078C21.6304 71.4415 20.5306 70.7087 19.2474 69.6096C19.0641 70.3424 19.2474 71.4415 18.1476 71.2583C16.8644 69.976 19.614 68.1442 17.9643 66.8619C17.231 67.7778 17.4143 69.6096 16.1312 69.7928C14.6647 67.5946 18.5142 65.7628 17.0477 63.931C15.9479 65.0301 15.9479 67.0451 14.6647 67.7778C13.5649 66.6787 15.0313 64.4805 15.5813 63.5646C16.4978 62.2823 17.5977 61.916 17.0477 60.8168C15.9479 61.3664 16.1312 63.1982 15.0313 63.7478C13.7482 63.1982 14.6647 61.7328 15.0313 61C15.5813 60.0841 16.3145 59.3514 16.6811 58.6187C16.4978 57.8859 16.3145 57.1532 16.3145 56.2373C14.6647 56.97 15.2146 59.7178 13.3816 60.2673C12.0984 57.1532 16.8644 55.3214 15.7646 52.3904C14.4814 52.7568 14.2981 55.1382 12.8316 55.8709C11.5485 55.5045 12.6483 53.6727 13.3816 52.5736C14.4814 51.1081 16.3145 50.3754 15.0313 48.1772C14.1148 49.4595 13.5649 51.1081 12.2817 52.0241C10.9985 51.2913 12.6483 50.009 13.1983 48.9099C14.1148 47.4445 15.2146 46.5286 14.6647 44.8799C13.5649 45.0631 13.1983 47.4445 11.7318 47.8108C10.4486 45.6126 13.9315 44.6967 14.4814 42.8649C14.6647 42.1322 14.4814 40.8499 14.2981 39.934C13.1983 41.0331 12.6483 42.6817 11.3652 43.4144C10.2653 42.3153 11.5485 41.3994 12.0984 40.4835C13.3816 38.8349 14.848 38.1021 14.1148 35.5376C13.3816 36.0871 13.0149 36.4535 12.2817 37.3694C11.9151 37.9189 10.4486 41.0331 10.082 38.8349C9.71539 37.1862 13.3816 34.6217 14.1148 33.3394C14.1148 32.6066 14.1148 31.8739 14.1148 31.1412C13.5649 31.6907 12.2817 32.4235 11.7318 33.5226C11.3652 34.0721 11.5485 34.988 10.8152 34.988C9.8987 34.8048 10.4486 33.5226 10.6319 33.1562C11.3652 31.5075 13.5649 30.2253 14.2981 28.943C14.2981 28.2102 14.4814 27.2943 14.1148 26.7448C13.7482 27.4775 12.6483 28.5766 12.2817 29.4925C11.9151 30.0421 12.0984 30.958 11.3652 30.958C10.6319 30.958 10.6319 30.0421 10.9985 29.1262C12.0984 26.3784 15.398 24.5466 16.1312 21.7988C14.2981 22.3484 14.1148 24.5466 12.2817 25.2793C11.5485 24.7298 12.2817 23.6307 12.465 23.2643C14.1148 21.0661 16.1312 19.967 18.8808 18.3184C20.7139 17.2193 22.1804 15.7538 24.0135 14.8379C26.7631 13.5556 30.6126 13.3724 34.2787 13.1892C41.0611 12.6397 48.0269 12.8229 55.3592 12.8229C61.0418 12.8229 67.0909 13.1892 72.5902 12.8229C76.9896 12.4565 82.6722 12.0901 86.8883 12.6397C88.7214 12.8229 89.8212 13.5556 91.2877 13.5556C98.9866 14.2883 100.27 20.1502 99.7199 27.2943C99.1699 33.8889 98.9866 42.1322 99.5366 48.5436C100.82 48.5436 102.286 48.3604 103.203 48.7268C103.936 46.8949 106.319 46.7117 106.136 43.964C104.303 45.0631 103.569 47.0781 101.553 47.8108C101.186 47.8108 101.186 47.4445 101.003 47.2613C102.653 45.4295 104.303 43.5976 106.319 42.3153C106.136 41.5826 106.686 40.8499 106.502 40.6667C105.769 41.5826 105.036 41.949 104.119 42.8649ZM89.6379 40.8499C92.2042 37.5526 94.5872 33.8889 96.6036 30.2253C96.7869 26.928 97.5202 20.8829 95.8704 18.3184C94.7705 16.6697 92.2042 16.4865 89.6379 15.937C88.538 15.7538 87.2549 15.2042 86.3383 15.2042C82.4889 14.8379 78.2728 15.0211 74.4233 15.2042C60.1252 16.1202 41.6111 14.2883 28.9628 16.1202C23.2802 17.0361 18.5142 20.6997 17.0477 25.4625C16.1312 28.7598 16.6811 33.1562 17.0477 36.8199C17.231 38.8349 17.231 40.8499 17.231 43.4144C19.7974 40.8499 21.9971 37.3694 24.3801 34.2553C26.2132 31.8739 28.0462 29.4925 29.696 27.1111C30.2459 26.3784 30.6126 24.9129 31.8957 25.2793C32.079 26.3784 31.1625 27.2943 30.6126 28.0271C26.3965 34.0721 21.9971 39.934 17.4143 45.4295C17.5977 46.1622 17.5977 46.8949 17.781 47.6277C18.3309 46.8949 18.6975 46.1622 19.2474 45.2463C22.7303 41.5826 25.4799 37.003 28.7795 33.3394C29.696 32.2403 30.7959 29.8589 32.4456 30.4084C32.8123 31.3244 31.7124 31.8739 31.1625 32.4235C29.5127 34.4385 28.0462 36.2703 26.5798 38.4685C25.6632 39.934 24.3801 41.0331 23.2802 42.3153C21.8138 44.3304 20.5306 46.1622 19.0641 48.1772C18.6975 48.9099 17.9643 49.4595 17.9643 50.009C17.9643 50.5586 18.1476 51.8409 18.3309 52.94C18.6975 55.6877 19.0641 59.5346 19.614 61.5496C19.9807 62.8319 21.0805 66.4955 21.9971 67.4114C23.2802 68.5105 24.93 67.7778 26.9464 68.3274C27.6796 68.5105 27.8629 68.8769 28.4129 69.0601C31.5291 69.976 37.2117 69.4265 42.161 69.6096C44.3607 69.7928 46.5604 69.7928 48.3935 69.7928C53.8927 70.1592 59.392 69.976 63.9747 69.6096C69.1073 69.2433 74.0567 69.7928 78.2728 69.0601C78.0895 62.8319 79.006 57.1532 81.5723 53.6727C84.5053 49.6427 90.3711 49.4595 96.7869 48.7268C96.237 45.7958 96.237 42.3153 96.237 38.8349C95.3205 39.2012 94.9538 40.6667 94.2206 41.5826C93.4874 42.4985 92.7541 43.7808 91.471 43.5976C91.2877 42.3153 92.7541 41.3994 93.4874 40.6667C94.0373 39.0181 95.1372 37.919 96.237 36.8199C96.237 35.3544 96.237 33.5226 96.237 32.6066C94.4039 35.9039 92.2042 38.8349 90.1878 41.5826C89.4546 42.4985 88.9047 43.964 87.6215 44.1472C87.4382 42.8649 88.9047 41.7658 89.6379 40.8499ZM104.486 49.2763C104.853 49.2763 105.402 49.2763 105.769 49.2763C105.769 48.5436 106.136 48.3604 105.952 47.8108C105.219 48.1772 104.853 48.5436 104.486 49.2763ZM113.835 94.8889C113.468 89.3934 113.651 83.3484 113.285 77.6697C113.101 76.3874 112.918 74.922 112.735 73.4565C112.368 66.8619 113.101 59.7178 110.535 55.6877C109.985 54.7718 107.602 52.3904 106.319 52.2072C105.586 52.0241 104.669 52.2072 103.753 52.0241C102.469 51.6577 100.27 51.2913 98.62 51.6577C95.1371 52.5736 89.2713 52.0241 85.9717 53.8559C82.8555 55.6877 81.389 60.8168 81.0224 65.5796C80.8391 69.6096 81.5723 73.2733 81.9389 76.937C82.1222 78.952 82.4889 80.967 82.4889 83.1652C82.6722 85.3634 82.6722 87.3784 82.8555 89.5766C83.0388 91.5916 83.4054 93.7898 83.4054 95.8048C83.772 100.568 83.4054 105.514 83.9553 109.544C84.1386 110.826 84.8719 114.306 85.4218 115.222C85.9717 116.138 87.9881 117.054 89.6379 117.787C91.2877 118.52 93.1208 118.886 95.1372 119.069C98.9866 119.435 104.669 119.619 108.335 119.252C112.002 118.886 113.468 116.871 114.568 113.757C115.668 107.345 114.201 100.568 113.835 94.8889ZM77.5395 79.3184C77.9062 79.3184 78.4561 79.3184 78.8227 79.3184C78.2728 78.5856 79.3726 77.8529 79.1893 77.1201C78.6394 78.0361 77.9062 78.5856 77.5395 79.3184ZM79.5559 81.8829C76.9896 82.0661 74.4233 82.0661 71.6737 82.2493C72.0403 84.997 72.7735 87.3784 73.1401 90.1262C75.1565 90.6757 77.1729 91.7748 79.006 92.5075C79.5559 92.6907 80.1059 93.2403 80.6558 93.0571C79.9225 89.7598 80.4725 84.997 79.5559 81.8829ZM47.4769 92.3244C50.7765 94.8889 56.0924 95.6217 61.2251 96.3544C61.4084 95.988 61.4084 95.4385 61.775 95.2553C64.158 94.3394 66.7243 92.8739 68.924 91.5916C69.474 91.2253 70.7571 90.6757 70.3905 89.7598C68.0075 91.2253 64.7079 92.6907 61.775 93.973C61.0418 94.3394 59.5753 95.6217 58.8421 94.5226C60.1252 92.8739 62.6915 92.3244 64.7079 91.2253C65.6245 90.6757 66.7243 90.1262 67.6409 89.5766C68.5574 89.0271 70.2072 88.6607 69.8406 87.012C67.6409 88.4775 65.8078 89.5766 63.2415 90.8589C62.8749 91.0421 59.392 93.2403 59.0254 91.7748C58.8421 91.0421 60.8585 90.4925 61.5917 90.1262C63.6081 89.2102 65.4412 88.2943 67.0909 87.1952C68.1908 86.4625 69.8406 85.5466 69.1073 84.2643C68.3741 84.2643 67.6409 85.1802 66.9076 85.7298C65.2579 87.012 63.0582 88.1111 60.6752 89.0271C60.3085 89.2102 58.6588 90.1262 58.4755 89.2102C58.2921 88.4775 60.3085 87.928 61.0418 87.5616C64.158 86.2793 66.7243 84.6307 68.5574 82.4325C67.2743 82.2493 66.541 82.6156 65.6245 82.6156C64.5246 83.3484 62.8749 84.6307 61.4084 85.5466C60.3085 86.0961 57.7422 88.2943 56.8257 86.4625C57.7422 85.7298 59.0254 85.3634 60.1252 84.6307C61.2251 84.0811 62.3249 83.3484 63.0582 82.4325C57.3756 82.2493 51.3264 82.6157 46.0105 82.2493C47.4769 85.1802 47.1103 89.0271 47.4769 92.3244ZM62.6915 96.3544C66.7243 96.7207 68.1908 94.7057 70.5738 93.4235C70.3905 92.8739 70.9404 92.5075 70.5738 92.1412C68.0075 93.6066 65.2579 95.0721 62.6915 96.3544ZM25.6632 99.8349C26.9464 102.766 29.8793 104.048 32.9956 105.147C33.7288 101.484 36.8451 100.018 39.5947 98.3694C40.3279 97.8199 41.2445 96.7208 42.161 97.4535C42.7109 98.3694 41.4278 98.7358 40.6945 99.1021C37.9449 100.751 34.6453 102.583 34.0954 105.697C34.6453 106.063 35.5619 106.246 36.2951 106.429C37.9449 103.865 40.5112 101.3 43.2608 99.4685C43.9941 99.1021 45.4606 97.6367 46.1938 98.919C43.0775 101.3 39.778 103.499 37.7616 106.796C38.8614 107.162 39.778 107.529 41.0611 107.712C41.2445 106.063 42.3443 105.514 43.2608 104.414C43.8108 103.682 44.544 103.132 45.0939 102.583C46.3771 101.3 47.6603 99.8349 49.31 99.2853C49.31 99.4685 49.4933 99.4685 49.4933 99.6517C49.31 100.934 48.0269 101.3 47.1103 102.033C45.0939 103.682 43.4442 105.88 42.161 107.895C42.8942 107.895 43.4442 108.078 44.1774 108.078C45.4605 106.246 46.927 104.781 48.5768 103.315C49.86 102.216 50.7765 100.934 52.4263 100.384C53.1595 101.3 52.0597 102.033 51.5097 102.583C49.6766 104.414 47.2936 106.063 45.8272 108.261C46.927 108.261 47.6603 108.628 48.7601 108.444C48.9434 108.261 48.9434 107.712 49.1267 107.529C50.5932 105.697 52.9762 103.865 54.8093 102.216C55.3592 101.667 56.2758 100.384 57.009 101.484C56.2758 102.949 54.8093 103.865 53.5261 104.964C52.243 106.063 51.1431 107.162 50.0433 108.444C50.9598 108.444 51.693 108.444 52.4263 108.628C53.8927 106.613 56.4591 105.147 58.2921 103.315C58.8421 102.766 59.2087 101.484 60.3085 101.85C60.4918 103.682 58.6588 104.598 57.3756 105.514C56.8257 106.063 56.0924 106.429 55.5425 106.979C54.9926 107.529 54.076 108.261 54.2594 108.628C55.1759 108.628 56.0924 108.994 57.1923 108.811C58.2921 106.979 60.4918 105.88 61.9583 104.598C62.6915 103.865 63.4248 102.033 64.5246 103.132C64.158 104.414 62.8749 105.33 61.9583 106.063C60.8585 106.979 59.5753 107.529 59.0254 108.628C59.5753 108.628 59.9419 108.628 60.4918 108.628C61.2251 107.529 62.3249 106.796 63.2415 105.88C64.158 104.964 64.8912 103.499 66.3577 103.315C66.3577 103.499 66.541 103.499 66.541 103.682C66.3577 104.781 65.2579 105.514 64.3413 106.246C63.6081 106.979 62.1416 107.712 62.3249 108.444C69.1073 108.444 75.1565 107.712 80.6558 106.429C80.8391 102.583 80.2892 99.6517 80.4725 95.8048C77.9062 94.7057 75.8898 93.0571 72.7735 92.3244C73.1401 96.1712 70.0239 98.003 66.9076 98.3694C58.4754 99.2853 48.5768 96.7207 44.7273 93.0571C44.544 92.6907 44.3607 92.3244 44.544 91.5916H44.3607C37.2117 93.7898 30.9792 96.3544 25.6632 99.8349Z" fill="#9EAF7C"/>
<path fill-rule="evenodd" clip-rule="evenodd" d="M10.2653 6.22825C10.2653 6.96098 9.34871 7.14417 8.79879 7.51053C7.51563 8.42645 6.04916 10.4415 4.94931 12.2733C4.03277 14.2883 2.74961 16.4865 2.5663 18.3183C2.38299 19.2343 3.11622 21.0661 2.01637 21.4325C0.916523 20.6997 1.28314 19.2343 1.46645 18.1352C1.64976 14.8379 5.13262 9.15918 7.33232 7.14417C8.06555 6.41143 9.53202 4.94597 10.2653 6.22825Z" fill="#9EAF7C"/>
<path fill-rule="evenodd" clip-rule="evenodd" d="M108.885 7.32735C111.268 10.8078 112.551 15.021 112.551 21.2493C112.551 22.3484 112.918 23.4475 112.001 23.997C110.718 23.997 111.268 19.6006 111.268 18.1352C111.085 14.4715 109.618 10.991 108.519 8.976C108.335 8.79282 107.602 8.976 107.602 8.42645C107.602 7.51053 107.969 7.14417 108.885 7.32735Z" fill="#9EAF7C"/>
<path fill-rule="evenodd" clip-rule="evenodd" d="M2.93294 7.87686C3.11625 8.6096 2.38301 8.97596 2.0164 9.52551C1.46647 10.4414 1.64978 11.9069 0.733237 12.8228C0.549929 12.8228 0.36662 12.8228 0.183312 12.8228C-0.366614 10.8078 0.916546 8.6096 2.0164 7.5105C2.38301 7.5105 2.56632 7.69368 2.93294 7.87686Z" fill="#9EAF7C"/>
<path fill-rule="evenodd" clip-rule="evenodd" d="M115.301 11.3574C116.034 11.9069 115.668 13.3724 115.851 14.4715C116.034 15.7538 116.767 19.4174 115.301 19.0511C114.384 18.8679 114.934 16.8529 114.751 16.1201C114.568 14.8379 114.384 12.8228 114.201 11.7237C114.384 11.7237 114.384 11.7237 114.384 11.5406C114.384 11.3574 114.568 11.3574 114.568 11.1742C114.934 11.3574 115.118 11.3574 115.301 11.3574Z" fill="#9EAF7C"/>
<path fill-rule="evenodd" clip-rule="evenodd" d="M118.051 13.9219C118.234 14.6547 118.234 16.4865 117.867 17.036C116.218 17.4024 116.584 13.006 118.051 13.9219Z" fill="#9EAF7C"/>
<path fill-rule="evenodd" clip-rule="evenodd" d="M69.6572 18.6847C70.0238 19.9669 68.5574 20.6997 67.8241 21.2492C65.6244 23.4474 63.4247 26.1952 61.225 28.5766C53.7094 36.4534 45.6438 43.9639 38.4948 52.3904C37.7615 53.1231 37.0283 54.039 36.2951 54.9549C35.7451 55.6877 35.3785 57.1531 34.0954 56.97C33.9121 55.8709 34.8286 54.7718 35.5618 54.039C37.5782 51.6576 39.7779 49.2763 41.9776 46.8949C44.7273 43.7808 48.0268 40.8498 50.9598 37.5525C53.7094 34.4384 57.0089 31.5075 59.9419 28.2102C61.4083 26.5615 62.6915 24.9129 64.158 23.2642C65.6244 21.6156 67.0909 19.9669 68.7407 18.6847C68.7407 18.5015 69.1073 18.3183 69.6572 18.6847Z" fill="#9EAF7C"/>
<path fill-rule="evenodd" clip-rule="evenodd" d="M47.8435 20.3334C48.2101 20.3334 48.5767 20.3334 48.5767 20.5166C48.5767 21.7988 47.4769 22.5316 46.7437 23.2643C42.7109 27.2943 39.228 32.0571 35.5618 36.6367C34.0954 38.4685 32.8122 40.4835 31.3457 42.1322C30.6125 43.0481 29.696 43.5976 28.9627 44.3304C28.4128 45.0631 28.2295 46.3454 26.9463 46.1622C26.5797 45.2463 27.1297 44.5136 27.4963 43.964C28.2295 43.0481 29.3294 42.1322 30.2459 41.2163C32.8122 38.4685 35.0119 35.1712 37.3949 32.2403C40.8778 28.0271 44.1773 23.997 47.8435 20.3334Z" fill="#9EAF7C"/>
<path fill-rule="evenodd" clip-rule="evenodd" d="M70.9404 26.5616C70.5738 28.0271 69.2906 29.6757 68.3741 30.958C65.2578 34.6217 61.5917 38.2853 57.9255 41.5826C54.2593 45.0631 50.9598 48.5436 47.2936 52.0241C46.7437 52.5736 46.1938 53.3063 45.6438 53.8559C45.2772 54.4054 44.7273 55.6877 43.8107 55.3214C43.4441 53.4895 45.2772 52.3904 46.3771 51.2913C49.8599 47.8108 53.1595 44.3304 56.8257 41.0331C61.775 36.6367 66.541 31.8739 70.0239 26.3784C70.0239 26.012 70.7571 26.1952 70.9404 26.5616Z" fill="#9EAF7C"/>
<path fill-rule="evenodd" clip-rule="evenodd" d="M83.4054 26.3784C83.5887 26.3784 83.772 26.3784 83.9554 26.3784C84.322 28.7598 81.939 30.4084 80.6558 31.8739C79.1893 33.5226 77.7229 35.1712 76.4397 36.8199C73.5068 40.1172 70.3905 43.2313 67.4576 46.3454C64.5247 49.6427 61.2251 52.5736 58.4755 55.6877C56.2758 58.0691 54.0761 60.4505 52.243 63.3814C51.6931 64.1142 51.3264 65.7628 50.0433 65.7628C49.6767 64.4805 50.7765 62.8319 51.5098 61.7328C52.0597 61 52.7929 60.2673 53.5261 59.5346C55.3592 57.3364 57.1923 54.955 59.2087 52.7568C64.5247 47.0781 70.3905 41.7658 75.5232 35.9039C78.2728 32.7898 81.2057 29.6757 83.4054 26.3784Z" fill="#9EAF7C"/>
<path fill-rule="evenodd" clip-rule="evenodd" d="M45.2771 32.057C44.5439 33.8889 43.2608 35.3543 41.7943 36.8198C38.4947 40.3003 35.3785 43.7808 32.4456 47.8108C31.8956 48.3603 31.529 49.8258 30.2458 49.4594C30.4292 47.6276 32.0789 46.1621 33.1788 44.6967C35.9284 41.033 39.4113 37.7357 42.3442 34.0721C43.0774 33.1561 43.8107 32.2402 44.5439 31.6907C45.0938 31.6907 44.9105 32.057 45.2771 32.057Z" fill="#9EAF7C"/>
<path fill-rule="evenodd" clip-rule="evenodd" d="M71.307 33.8889C71.1237 35.1712 69.8405 35.9039 69.1073 36.8198C68.374 37.7358 67.6408 38.6517 66.9076 39.5676C63.9746 43.2313 60.3085 46.3454 57.0089 49.8258C56.2757 50.7418 55.5424 51.6577 54.8092 52.5736C54.076 53.3063 53.3427 54.7718 52.0596 54.5886C51.693 53.3063 53.1594 52.5736 53.8927 51.6577C57.5588 47.4445 62.1416 43.4144 65.8077 39.018C67.2742 37.1862 68.7407 35.1712 70.3904 33.8889C70.5737 33.5225 70.7571 33.5225 71.307 33.8889Z" fill="#9EAF7C"/>
<path fill-rule="evenodd" clip-rule="evenodd" d="M78.8227 41.2162C78.8227 42.4985 77.5395 43.048 76.8063 43.7808C73.1401 47.8108 69.474 51.8408 65.8078 56.054C65.0746 56.7868 64.3413 57.7027 63.6081 58.6186C63.0582 59.5345 62.1416 60.2673 61.5917 61.1832C61.4084 61.5495 61.4084 62.8318 60.4918 62.6486C59.2087 62.2823 61.0418 60.0841 61.4084 59.5345C63.6081 56.7868 65.8078 54.039 68.1908 51.4745C72.2236 47.4444 74.4233 44.1471 77.5395 41.033C77.7228 41.033 78.4561 41.033 78.8227 41.2162Z" fill="#9EAF7C"/>
<path fill-rule="evenodd" clip-rule="evenodd" d="M78.0895 48.1772C78.0895 49.0931 77.3562 49.6427 76.8063 50.1922C74.4233 52.94 71.307 55.6877 68.7407 58.4355C68.1908 58.985 67.6409 59.5346 67.2743 60.2673C66.9076 60.8169 66.7243 61.916 65.6245 61.7328C64.8912 60.4505 66.7243 58.985 67.4576 57.8859C68.3741 56.7868 69.6573 55.6877 70.7571 54.7718C73.1401 52.5736 75.1565 49.8259 77.1729 47.8109C77.7228 47.8109 77.9061 47.994 78.0895 48.1772Z" fill="#9EAF7C"/>
<path fill-rule="evenodd" clip-rule="evenodd" d="M113.285 49.2763C114.568 47.8108 116.401 51.4745 116.951 52.7568C118.234 55.5045 118.601 58.0691 118.784 60.2673C118.967 61.5496 118.967 63.7478 118.234 63.7478C117.317 63.7478 117.684 61.7328 117.684 60.8168C117.317 57.1532 116.218 53.4895 114.568 50.9249C113.835 50.1922 113.468 50.1922 113.285 49.2763Z" fill="#9EAF7C"/>
<path fill-rule="evenodd" clip-rule="evenodd" d="M120.434 53.8559C121.35 54.2223 121.167 56.0541 121.35 57.3364C121.534 58.4355 122.083 60.0841 121.167 60.6337C119.7 59.9009 119.884 56.4205 119.884 54.4054C119.884 53.8559 120.067 53.8559 120.434 53.8559Z" fill="#9EAF7C"/>
<path fill-rule="evenodd" clip-rule="evenodd" d="M95.687 54.7718C97.8867 53.8558 98.07 57.5195 96.0536 57.3363C94.7705 57.3363 94.4038 55.3213 95.687 54.7718Z" fill="#9EAF7C"/>
<path fill-rule="evenodd" clip-rule="evenodd" d="M91.471 60.2673C93.4874 60.0841 97.5202 60.0841 100.27 60.0841C101.553 60.0841 103.936 60.2673 104.852 60.6337C105.586 61 107.052 63.015 107.236 63.5646C108.702 66.8619 108.519 71.991 109.069 76.5706C109.252 79.3183 109.802 82.0661 109.985 84.8138C110.352 87.5616 110.352 90.4925 110.718 93.4234C111.268 98.1862 112.551 103.315 110.168 106.613C109.252 107.895 106.136 109.91 103.753 110.276C99.9032 110.826 95.5038 109.91 92.5708 109.36C87.6215 108.078 87.6215 104.781 87.0716 98.9189C86.8883 97.0871 86.3383 94.7057 86.155 92.3244C85.9717 90.1262 85.9717 87.7448 85.7884 85.3634C85.2385 78.2192 83.5887 74.7388 84.1386 68.5105C84.6886 63.3814 86.5216 60.6337 91.471 60.2673ZM91.8376 84.0811C94.9538 79.6847 98.2534 76.021 101.553 71.8078C102.469 70.7087 105.219 68.1442 105.402 66.6787C105.586 65.2132 104.486 64.1141 103.569 63.1982C100.27 62.8319 95.3205 62.4655 92.0209 62.8319C90.7377 63.015 89.088 63.3814 88.3547 64.1141C85.6051 67.0451 87.6215 74.7388 87.8048 78.952C90.0045 76.3874 92.3875 73.6397 94.4039 70.8919C94.9538 70.1592 95.5038 68.3274 96.9702 68.6937C96.9702 69.976 95.8704 70.8919 95.1371 71.991C93.6707 74.006 92.2042 75.8379 90.5544 77.8529C89.4546 79.3183 87.6215 80.4174 88.3547 82.6156C90.7377 80.2343 93.4874 77.1201 95.5038 74.006C96.237 72.9069 96.6036 71.4415 98.0701 71.2583C98.4367 72.7238 96.9702 73.8228 96.237 74.9219C94.5872 77.3033 92.9374 79.3183 90.921 81.5165C90.0045 82.6156 88.538 83.8979 88.3547 84.997C88.1714 85.7298 88.538 87.012 88.538 87.928C88.538 89.0271 88.538 90.1262 88.538 91.0421C88.7213 93.6066 89.4546 96.3544 89.4546 98.3694C89.6379 100.568 89.2713 103.865 90.3711 105.33C91.2877 106.613 95.3204 107.345 97.3368 107.529C103.569 108.078 107.969 106.613 108.519 102.033C109.069 98.1862 107.785 93.973 107.419 90.1262C107.052 86.6457 107.052 83.3484 106.502 80.0511C105.586 80.4174 105.036 81.6997 104.303 82.6156C102.653 84.4475 101.186 86.2793 99.5365 88.1111C98.8033 88.8439 98.0701 90.6757 96.6036 89.943C96.6036 89.027 97.5202 88.4775 98.0701 87.7448C99.9032 85.9129 101.736 83.7147 103.386 81.8829C103.936 81.3334 104.119 80.6006 104.486 80.0511C104.852 79.5015 106.136 78.952 106.319 78.2192C106.502 77.3033 105.769 76.021 105.952 74.9219C103.019 79.8679 98.2534 83.5316 95.3205 88.2943C94.9538 88.8439 94.5872 90.1262 93.4874 90.1262C92.7541 89.2102 93.6707 88.2943 94.0373 87.7448C96.6036 83.7147 99.7199 80.967 102.653 77.3033C103.386 76.5706 105.586 73.6397 105.586 72.7237C105.769 71.4415 104.852 70.1592 105.219 68.8769C101.553 72.7237 98.62 77.4865 95.3205 81.5165C94.2206 82.982 92.9374 84.2643 91.8376 85.7298C91.471 86.2793 91.471 87.3784 90.3711 87.3784C90.1878 86.0961 91.2877 84.8138 91.8376 84.0811Z" fill="#9EAF7C"/>
<path fill-rule="evenodd" clip-rule="evenodd" d="M4.03279 63.015C4.58272 67.7778 5.49926 71.991 7.33235 75.6546C8.06558 76.9369 9.34874 78.036 9.53205 79.5015C8.06558 79.6847 7.33235 77.8528 6.59911 76.9369C4.58272 73.4564 3.11625 68.6937 2.74963 63.3814C2.93294 63.3814 2.93294 63.015 3.29956 63.015C3.66618 62.8318 3.66618 63.015 4.03279 63.015Z" fill="#9EAF7C"/>
<path fill-rule="evenodd" clip-rule="evenodd" d="M1.83309 72.1742C2.56632 72.1742 2.38301 73.0901 2.56632 73.6397C2.56632 73.8228 5.31595 78.0361 3.66617 78.2192C3.11625 78.2192 1.28316 74.1892 1.09985 73.6397C1.09985 73.2733 1.09985 72.7237 1.09985 72.5406C1.28316 72.5406 1.46647 72.3574 1.46647 72.1742C1.64978 72.1742 1.83309 72.1742 1.83309 72.1742Z" fill="#9EAF7C"/>
<path fill-rule="evenodd" clip-rule="evenodd" d="M32.2623 84.4475C31.5291 86.2793 28.0462 85.7298 24.93 85.7298C23.0969 85.7298 21.0805 86.0961 20.1639 85.1802C20.7139 83.8979 22.9136 84.4475 24.7467 84.4475C26.3964 84.4475 28.4128 84.6307 29.8793 84.4475C30.6125 84.4475 31.5291 83.7148 32.2623 84.4475Z" fill="#9EAF7C"/>
<path fill-rule="evenodd" clip-rule="evenodd" d="M105.586 86.6457C104.303 89.943 101.37 92.3243 99.3532 94.8889C97.7034 96.9039 95.8704 98.5526 94.2206 100.751C93.6707 101.3 93.1207 102.399 92.2042 102.399C91.8376 100.751 93.6706 99.4685 94.7705 98.1862C96.9702 95.8048 99.3532 93.2402 101.37 90.6757C102.469 89.3934 103.386 87.7448 104.486 86.8288C104.669 86.4625 105.036 86.0961 105.586 86.6457Z" fill="#9EAF7C"/>
<path fill-rule="evenodd" clip-rule="evenodd" d="M105.769 91.5916C105.036 93.7898 103.386 95.4385 101.919 97.0871C99.7198 99.2853 97.5201 101.3 95.687 103.865C95.3204 104.414 94.9538 105.88 93.8539 105.697C93.304 104.231 94.7705 102.949 95.687 101.85C97.5201 99.4685 99.7198 97.4535 101.736 95.2553C102.836 94.1562 103.569 92.6907 104.486 91.7748C105.036 91.4085 105.219 91.0421 105.769 91.5916Z" fill="#9EAF7C"/>
<path fill-rule="evenodd" clip-rule="evenodd" d="M106.136 96.5376C106.502 97.4535 105.402 97.8199 104.853 98.3694C103.569 99.6517 101.92 101.117 101.003 102.216C100.453 102.766 99.9032 104.414 98.8033 103.499C98.8033 102.766 99.3533 102.216 99.7199 101.667C101.37 99.6517 103.569 98.1862 105.219 96.1712C105.586 96.1712 106.136 96.1712 106.136 96.5376Z" fill="#9EAF7C"/>
<path fill-rule="evenodd" clip-rule="evenodd" d="M118.417 98.5525C119.884 96.9039 120.25 101.3 120.25 102.583C120.434 104.231 120.25 107.162 120.25 109.36C120.25 110.643 120.617 115.589 119.7 115.589C118.601 115.589 119.15 110.826 119.15 109.727C118.967 105.33 119.15 101.85 118.417 98.5525Z" fill="#9EAF7C"/>
<path fill-rule="evenodd" clip-rule="evenodd" d="M37.0284 113.94C35.7452 114.856 34.6454 113.39 33.3622 113.024C28.0463 111.192 22.9136 109.177 21.0805 104.598C20.8972 104.048 20.5306 102.949 21.2638 102.766C21.9971 102.583 22.1804 104.048 22.3637 104.414C23.4635 106.429 24.93 107.895 27.313 109.177C29.696 110.459 32.079 111.192 34.6454 112.291C35.7452 112.658 37.0284 112.841 37.0284 113.94Z" fill="#9EAF7C"/>
<path fill-rule="evenodd" clip-rule="evenodd" d="M69.1073 105.88C69.1073 106.796 68.0075 107.162 67.4576 107.529C66.9076 107.895 66.541 108.994 65.6245 108.811C64.7079 107.895 68.0075 104.598 69.1073 105.88Z" fill="#9EAF7C"/>
<path fill-rule="evenodd" clip-rule="evenodd" d="M122.817 106.063C123.367 107.345 123.183 110.093 122.45 111.009C120.8 110.643 122.083 107.529 122.083 106.063C122.45 106.063 122.45 105.88 122.817 106.063Z" fill="#9EAF7C"/>
<path fill-rule="evenodd" clip-rule="evenodd" d="M22.3636 109.36C23.2802 109.727 23.4635 110.643 24.5633 111.009C25.4799 111.375 27.6796 111.009 27.4963 112.108C27.313 113.024 24.7466 112.474 23.8301 112.108C22.5469 111.742 20.7138 110.276 22.3636 109.36Z" fill="#9EAF7C"/>
<path fill-rule="evenodd" clip-rule="evenodd" d="M104.853 112.658C105.586 112.475 106.502 112.658 106.686 113.39C106.869 114.49 105.586 115.589 104.119 115.955C102.653 116.321 101.37 115.772 99.9032 115.589C97.8868 115.405 95.5038 116.138 95.6871 113.94C96.0537 111.559 101.553 113.574 103.203 113.39C103.936 113.207 103.936 112.841 104.853 112.658Z" fill="#9EAF7C"/>
<path fill-rule="evenodd" clip-rule="evenodd" d="M80.4725 113.39C81.2057 114.306 80.6558 115.772 80.8391 116.871C81.0224 118.336 82.4889 118.886 82.6722 120.168C79.9226 120.718 78.8227 116.504 79.7393 113.574C79.9226 113.39 80.1059 113.39 80.4725 113.39Z" fill="#9EAF7C"/>
</g>
<defs>
<clipPath id="clip0_15_4884">
<rect width="123" height="122" fill="white"/>
</clipPath>
</defs>
</svg>
