<svg width="100" height="132" viewBox="0 0 100 132" fill="none" xmlns="http://www.w3.org/2000/svg">
<g clip-path="url(#clip0_15_4949)">
<path fill-rule="evenodd" clip-rule="evenodd" d="M60.1942 104.795C57.6052 106.888 56.4725 111.234 51.4563 110.751C48.7055 110.429 46.2783 107.693 44.4984 105.6C42.5567 103.346 41.1004 100.771 39.4822 98.6781C35.9224 94.1707 33.0097 89.0195 29.7735 84.5122C27.1845 80.9707 25.2427 77.1073 22.8156 73.4049C20.5502 69.8634 18.7703 65.3561 17.3139 61.1707C16.1813 58.2732 15.2104 55.2146 14.2395 52.3171C13.2686 49.4195 12.1359 45.7171 11.9741 42.4976C11.8123 38.6342 11.9741 34.6098 12.6214 31.2293C14.5631 21.7317 19.4175 13.522 25.5664 8.20977C27.8317 6.27806 30.2589 5.31221 33.3334 4.0244C38.9968 1.77075 45.4693 0.48294 53.0745 -0.160962C54.369 -0.321938 56.1489 0.48294 57.6052 0.643916C59.8706 0.965867 61.6505 0.804891 63.2686 1.12684C64.7249 1.60977 66.1813 2.41465 67.6376 3.05855C71.5211 4.82928 75.5664 7.40489 79.1262 9.81953C80.2589 10.6244 81.2298 11.7512 82.2007 12.7171C84.466 14.6488 86.5696 16.9025 88.0259 19.1561C90.1295 22.6976 90.9385 28.1707 91.424 33.161C91.7476 35.7366 91.7476 38.6342 91.7476 41.3707C91.7476 44.2683 92.0712 47.0049 91.9094 49.9025C91.424 56.6634 89.4822 61.9756 87.2169 66.9659C86.0842 69.3805 84.466 71.4732 83.1716 73.7268C80.4207 78.2342 77.8317 82.7415 74.4337 86.7659C72.8156 88.8586 71.0356 90.7903 69.7411 92.8829C66.9903 97.2293 63.5923 101.093 60.1942 104.795ZM85.2751 19.8C84.1424 18.1903 82.5243 16.4195 80.9062 14.9707C78.1554 12.3951 74.2719 9.3366 70.8738 7.56587C68.2848 6.27806 65.0486 4.50733 62.4596 3.86343C60.6796 3.54148 59.0615 3.70245 57.2816 3.54148C55.9871 3.3805 55.178 2.89757 53.8835 2.7366C52.9127 2.57562 51.78 2.7366 51.1327 2.89757C45.6311 3.3805 40.2913 4.66831 35.4369 6.43904C30.5826 8.20977 26.5372 10.6244 23.7864 14.0049C20.8738 17.5464 18.9321 21.8927 17.1521 26.0781C15.2104 30.9073 14.5631 36.5415 14.8868 42.6586C15.2104 48.1317 17.4758 52.961 19.2557 57.7903C21.0356 62.6195 22.6537 67.7707 25.0809 71.6342C25.89 72.922 26.8609 74.0488 27.5081 75.4976C28.3172 76.9464 29.1262 78.2342 29.9353 79.522C31.5534 82.0976 33.4952 84.5122 35.1133 87.0878C36.7314 89.6634 38.3495 92.4 40.1295 94.8147C41.1004 96.1025 42.0712 97.2293 42.8803 98.5171C44.4984 100.932 46.1165 103.507 48.0583 105.439C49.0292 106.405 50.9709 108.015 52.2654 108.015C54.369 108.015 55.9871 105.761 57.1198 104.312C58.5761 102.541 60.0324 100.932 61.4887 99.161C62.2978 98.3561 63.1068 97.5512 63.9159 96.7464C65.8576 94.4927 67.1521 91.5951 69.0939 89.0195C70.3884 87.2488 72.0065 85.8 73.301 84.0293C75.89 80.4878 78.3172 76.6244 80.5826 72.922C82.3625 69.8634 84.466 67.4488 85.7606 64.2293C85.2751 64.2293 84.9515 64.0683 84.7897 63.7463C84.6279 61.9756 81.8771 60.3659 83.1716 58.7561C84.7897 59.561 85.2751 61.6537 86.246 63.2634C86.246 62.9415 87.055 62.1366 86.5696 62.1366C85.9224 62.1366 85.9224 61.4927 85.5987 61.1707C84.9515 60.3659 84.466 58.4342 85.7606 58.5951C86.7314 58.5951 86.4078 60.6878 87.5405 61.0098C88.3495 58.2732 89.1586 55.5366 89.4822 52.3171C89.1586 52.1561 88.6732 51.9951 88.5114 51.3512C88.835 48.7756 88.6732 44.9122 88.3495 41.3707C88.1877 39.2781 87.3787 37.6683 87.055 35.4146C86.8932 34.4488 86.8932 33.6439 86.5696 32.3561C86.4078 31.3903 85.7605 29.6195 87.055 29.9415C87.5405 29.9415 87.8641 31.3903 88.0259 32.0342C88.6732 34.7707 88.835 37.3464 89.644 39.439C88.3495 32.3561 88.5114 24.4683 85.2751 19.8Z" fill="#9EAF7C"/>
<path fill-rule="evenodd" clip-rule="evenodd" d="M18.2848 12.8781C18.123 12.8781 17.7994 12.8781 17.6376 12.8781C16.8285 11.9122 17.6376 10.4634 18.123 9.65855C15.8576 9.65855 17.1521 5.95611 18.7702 5.79513C18.9321 5.95611 19.0939 6.11709 19.2557 6.27806C19.2557 7.40489 18.2848 7.56587 18.2848 8.6927C20.0647 6.76099 22.1683 3.86343 24.9191 2.57562C27.0227 3.3805 24.4337 4.50733 23.301 5.47318C21.521 6.92196 19.5793 9.01465 18.7702 11.2683C18.7702 11.9122 19.2557 12.0732 18.2848 12.8781Z" fill="#9EAF7C"/>
<path fill-rule="evenodd" clip-rule="evenodd" d="M88.0259 13.361C86.5696 13.2 85.9224 11.7513 84.9515 10.9464C83.3334 9.4976 81.7152 8.37077 79.6117 7.24394C79.4499 6.60004 79.7735 6.11711 80.2589 6.27809C81.877 6.60004 83.9806 8.04882 85.7605 9.4976C87.055 10.4635 88.6732 12.0732 88.0259 13.361Z" fill="#9EAF7C"/>
<path fill-rule="evenodd" clip-rule="evenodd" d="M50.4855 11.9122C50.3237 11.9122 50.1619 11.9122 50.1619 12.0732C49.0292 10.9463 48.3819 9.33659 47.8965 7.56586C49.3528 5.9561 51.1327 10.7854 50.4855 11.9122Z" fill="#9EAF7C"/>
<path fill-rule="evenodd" clip-rule="evenodd" d="M53.2362 11.2683C53.0744 11.2683 52.9126 11.2683 52.9126 11.4293C51.6181 10.7854 51.4563 9.17563 50.6472 7.88783C52.2653 6.27807 53.7217 9.98051 53.2362 11.2683Z" fill="#9EAF7C"/>
<path fill-rule="evenodd" clip-rule="evenodd" d="M47.4111 11.4293C47.2493 11.4293 47.2493 11.4293 47.0875 11.5902C45.9548 11.5902 45.9548 10.7854 45.4693 9.8195C45.1457 9.33657 43.6894 7.24389 45.4693 7.40487C46.2784 7.56584 47.8965 10.4634 47.4111 11.4293Z" fill="#9EAF7C"/>
<path fill-rule="evenodd" clip-rule="evenodd" d="M55.9871 12.2342C54.6926 11.4293 54.369 9.65856 53.8835 8.20978C55.5017 6.92198 57.2816 10.9464 55.9871 12.2342Z" fill="#9EAF7C"/>
<path fill-rule="evenodd" clip-rule="evenodd" d="M38.3495 8.37076C39.644 7.4049 40.4531 9.98051 41.424 11.1073C41.7476 11.4293 43.3657 12.8781 41.7476 13.2C40.7767 13.361 40.1295 11.9122 39.644 11.1073C38.9968 9.98051 38.1877 9.49759 38.3495 8.37076Z" fill="#9EAF7C"/>
<path fill-rule="evenodd" clip-rule="evenodd" d="M45.3076 12.2341C45.1458 12.3951 44.984 12.2341 44.984 12.5561C44.0131 12.7171 41.2623 8.37072 42.8804 8.20975C43.8513 8.04877 45.3076 11.2683 45.3076 12.2341Z" fill="#9EAF7C"/>
<path fill-rule="evenodd" clip-rule="evenodd" d="M57.6051 9.01465C58.0906 9.81953 58.7378 10.9464 58.576 12.0732C58.2524 12.0732 57.9288 12.2342 57.6051 12.2342C57.2815 11.2683 55.3398 9.01465 57.6051 9.01465Z" fill="#9EAF7C"/>
<path fill-rule="evenodd" clip-rule="evenodd" d="M39.1587 14.0049C37.2169 15.1317 37.0551 11.5903 35.437 11.1074C36.5697 8.37077 38.8351 12.5561 39.1587 14.0049Z" fill="#9EAF7C"/>
<path fill-rule="evenodd" clip-rule="evenodd" d="M83.3334 23.0195C82.2008 23.1805 82.0389 22.0537 81.5535 21.4098C80.9063 20.4439 79.9354 19.1561 78.9645 18.1903C77.67 16.7415 76.5373 15.6147 75.081 14.6488C74.7574 12.8781 69.903 12.3951 71.0357 10.3025C71.1975 10.3025 71.1975 10.1415 71.3593 10.1415C73.6247 11.1073 75.081 12.7171 77.0228 14.0049C78.1554 15.2927 79.4499 16.7415 80.9063 18.1903C82.0389 19.4781 83.8189 20.9268 83.3334 23.0195Z" fill="#9EAF7C"/>
<path fill-rule="evenodd" clip-rule="evenodd" d="M61.4888 13.0391C60.1943 14.1659 59.5471 12.0732 59.3853 10.7854C60.5179 9.65856 61.4888 11.7512 61.4888 13.0391Z" fill="#9EAF7C"/>
<path fill-rule="evenodd" clip-rule="evenodd" d="M36.4079 16.2586C34.3043 16.7415 33.4953 14.0049 32.5244 12.3951C33.6571 11.2683 34.628 12.8781 35.2752 13.8439C35.9225 14.6488 36.5697 15.4537 36.4079 16.2586Z" fill="#9EAF7C"/>
<path fill-rule="evenodd" clip-rule="evenodd" d="M23.1392 42.0147C21.6829 41.6927 20.2266 39.922 20.2266 38.1512C21.8447 37.6683 22.0065 39.761 22.9774 40.4049C22.9774 37.1854 24.1101 35.0927 25.0809 32.5171C26.3754 29.1366 27.1845 26.4 29.1262 23.8244C34.1424 17.2244 42.3948 12.8781 52.7508 12.3951C53.7217 12.3951 56.3107 12.2342 57.9288 12.7171C60.356 13.361 62.6214 14.8098 64.8867 16.2586C66.9903 17.5464 69.7411 18.5122 71.5211 20.122C73.1392 21.4098 74.5955 23.5025 75.89 25.4342C77.1845 27.5268 78.8026 29.6195 79.6117 31.3903C80.2589 32.6781 80.4207 34.6098 80.9062 36.2195C81.877 39.1171 82.6861 40.5659 82.3625 44.4293C82.0389 48.7756 79.9353 53.4439 77.9935 56.9854C75.7282 61.1707 72.8156 66.161 68.9321 68.5756C66.3431 70.3464 59.7088 71.7951 55.3398 71.4732C54.0453 71.3122 52.9126 70.8293 51.78 70.6683C50.1618 70.5073 48.3819 70.8293 46.602 70.8293C43.3657 70.8293 40.1295 69.8634 37.7023 68.2537C35.9224 66.9659 34.1424 64.8732 32.5243 63.2634C30.7444 61.6537 29.1262 59.722 27.8317 57.7903C24.9191 53.6049 24.4337 47.9707 23.1392 42.0147ZM51.2945 19.1561C51.4563 19.4781 51.6181 19.639 51.9418 19.8C52.2654 18.1903 53.7217 16.4195 53.3981 14.9708C52.2654 16.0976 51.9418 17.7073 51.2945 19.1561ZM53.0745 21.2488C53.3981 21.8927 53.8835 22.5366 54.2071 23.0195C55.3398 20.6049 56.3107 18.0293 56.958 15.1317C56.4725 14.9707 55.8253 14.9708 55.178 14.9708C54.6926 17.5464 53.7217 19.3171 53.0745 21.2488ZM49.3528 15.4537C48.5437 18.9951 46.4402 22.2147 46.2783 25.9171C47.7347 22.2147 50 19.3171 51.2945 15.4537C50.6473 15.4537 50 15.4537 49.3528 15.4537ZM44.822 16.5805C43.6893 21.8927 41.7476 27.0439 40.9385 32.3561C41.424 32.0342 42.233 32.1951 42.7185 31.8732C44.1748 26.4 45.4693 20.7659 47.411 15.7756C47.2492 15.7756 47.2492 15.7756 47.0874 15.7756C46.4402 16.0976 45.6311 16.2586 44.822 16.5805ZM55.0162 24.9512C55.5016 25.4342 55.5016 26.4 56.1489 26.722C57.1198 22.8586 59.0615 20.122 60.5178 16.7415C59.8706 16.2586 59.2233 15.9366 58.4143 15.7756C57.6052 19.1561 56.3107 22.2147 55.0162 24.9512ZM43.3657 17.2244C43.3657 17.0634 43.2039 17.0634 43.0421 17.0634C42.5567 17.3854 41.9094 17.7073 41.2622 17.8683C40.9385 20.4439 39.9677 23.0195 38.9968 25.5951C38.0259 28.1707 37.2169 30.7464 36.5696 33.4829C37.3787 33.322 38.1877 33.161 38.9968 33C40.7767 28.0098 41.5858 22.2147 43.3657 17.2244ZM57.4434 27.5268C57.2816 27.8488 56.7961 27.8488 56.6343 28.1707C56.958 28.6537 56.958 29.4586 57.6052 29.7805C59.0615 25.5951 61.4887 22.3756 62.945 18.3512C62.4596 18.1903 62.1359 17.8683 61.8123 17.7073C60.356 20.9268 58.4143 23.6634 57.4434 27.5268ZM35.7605 20.9268C35.9224 21.4098 36.4078 21.4098 36.4078 21.8927C35.1133 26.239 33.0097 30.4244 32.0389 34.7707C32.8479 34.4488 33.8188 34.2878 34.6279 33.9659C36.0842 28.8147 38.3495 23.6634 39.4822 18.5122C38.1877 19.4781 36.7314 19.961 35.7605 20.9268ZM64.4013 19.1561C62.6214 23.5025 60.1942 27.2049 58.4143 31.5512C58.8997 31.8732 59.8706 31.8732 60.6796 31.8732C62.6214 28.0098 65.534 24.1464 66.9903 20.2829C66.0194 20.122 65.3722 19.4781 64.4013 19.1561ZM62.2978 32.1951C63.7541 32.1951 64.7249 32.5171 66.1813 32.5171C67.1521 28.8147 69.0939 25.9171 70.2266 22.3756C69.5793 21.8927 69.0939 21.4098 68.2848 21.0878C66.6667 25.2732 64.0777 28.4927 62.2978 32.1951ZM30.0971 27.8488C29.7735 28.0098 30.5825 28.1707 30.4207 28.8146C29.1262 32.5171 27.8317 36.0586 26.8609 40.0829C26.5372 40.5659 25.89 40.0829 25.7282 40.7268C26.0518 41.5317 25.89 42.6586 26.2136 43.3025C27.5081 40.7268 27.9936 37.1854 30.0971 35.2537C31.7152 30.9073 33.4952 26.239 34.6279 22.0537C33.1715 23.9854 31.2298 25.4342 30.0971 27.8488ZM47.0874 30.4244C46.4402 31.7122 45.1457 34.2878 44.1748 34.6098C43.5275 34.9317 42.7185 34.7708 42.0712 34.9317C38.6732 35.5756 35.2751 37.0244 31.7152 37.9903C34.466 39.439 36.7314 41.5317 39.1586 43.3025C41.1003 44.5903 41.7476 45.5561 40.6149 47.9707C39.1586 51.0293 36.5696 53.9268 35.7605 57.4683C41.7476 57.6293 45.6311 56.8244 48.7055 54.4098C49.8382 53.6049 51.6181 51.6732 52.9126 51.5122C54.6926 51.3512 55.8253 52.8 56.958 53.7659C58.0906 54.5707 59.0615 55.6976 60.0324 56.1805C62.7832 57.6293 65.3722 58.1122 69.2557 57.9512C67.4757 54.7317 65.6958 50.5464 63.4304 47.8098C62.6214 46.8439 60.6796 45.7171 60.6796 44.4293C60.6796 42.4976 63.5923 41.2098 65.2104 40.2439C67.1521 39.1171 68.9321 38.1512 70.3884 36.8634C69.2557 36.5415 68.4466 35.7366 67.1521 35.4146C64.0777 34.4488 59.7088 35.2537 57.1198 34.2878C55.8253 33.8049 54.5308 30.7464 53.7217 29.1366C52.4272 26.722 51.78 24.1464 50.3236 22.8586C49.5146 25.5951 48.3819 27.5268 47.0874 30.4244ZM67.3139 32.839C67.7994 32.839 68.2848 33 68.6084 33.161C69.5793 30.5854 71.0356 28.4927 71.6829 25.9171C71.8447 25.7561 71.8447 25.4342 72.3301 25.5951C72.0065 24.9512 71.5211 24.4683 71.0356 23.9854C70.0647 26.8829 68.4466 29.6195 67.3139 32.839ZM69.9029 33.8049C70.5502 33.9659 70.8738 34.2878 71.6829 34.4488C72.0065 32.3561 73.4628 31.0683 73.6246 28.6537C73.7864 28.4927 73.7864 28.1707 74.2719 28.3317C73.9482 27.6878 73.6246 26.8829 73.1392 26.561C72.3301 29.1366 70.8738 31.2293 69.9029 33.8049ZM72.9774 35.0927C74.5955 36.2195 73.4628 38.4732 72.8156 40.2439C71.5211 43.6244 69.2557 47.1659 68.2848 50.3854C68.9321 51.0293 68.9321 52.1561 69.5793 52.639C72.0065 46.6829 74.7573 40.7268 77.6699 35.0927C77.1845 32.839 76.2136 31.0683 75.0809 29.4586C74.7573 31.5512 73.4628 33 72.9774 35.0927ZM74.2719 45.8781C73.6246 47.1659 72.9774 48.4537 72.3301 49.9025C71.1974 52.3171 69.7411 54.5707 71.8447 56.1805C72.4919 53.9268 73.301 51.6732 74.2719 49.4195C75.2427 47.1659 76.6991 45.2342 77.5081 43.4634C78.479 41.5317 79.6117 39.1171 78.3172 37.3464C76.8609 39.439 75.89 42.4976 74.2719 45.8781ZM27.1845 44.9122C26.8609 45.0732 26.3754 46.039 26.8609 46.361C27.9936 44.2683 29.4499 42.6586 30.5825 40.4049C29.9353 40.4049 29.9353 39.761 29.2881 39.6C28.479 41.5317 27.8317 43.1415 27.1845 44.9122ZM68.6084 41.6927C67.9612 43.6244 67.7994 46.039 66.5049 47.3268C66.9903 47.6488 66.9903 48.4537 67.6376 48.6146C68.4466 45.3951 70.0647 43.1415 71.1974 40.2439C71.3592 40.2439 71.3592 40.0829 71.0356 40.0829C70.3884 40.7268 69.4175 41.2098 68.6084 41.6927ZM31.877 41.3707C30.2589 43.6244 28.8026 46.039 27.3463 48.4537C27.5081 49.0976 27.6699 49.7415 27.8317 50.2244C28.6408 48.7756 29.4499 47.3268 30.2589 46.039C31.068 44.7512 32.0389 43.1415 33.657 42.6586C33.657 42.9805 34.1424 42.8195 33.9806 42.9805C33.8188 44.4293 32.0389 45.7171 30.9062 47.4878C29.4499 49.7415 27.1845 52.3171 28.9644 54.7317C31.068 51.1903 33.4952 47.8098 35.5987 44.2683C34.6279 43.1415 33.4952 42.0147 31.877 41.3707ZM75.5664 50.2244C73.6246 54.4098 72.4919 59.561 70.8738 63.1025C72.8156 60.8488 74.1101 58.5951 75.5664 55.8586C77.6699 52.1561 79.7735 47.3268 79.4499 42.3366C78.3172 44.9122 76.6991 47.3268 75.5664 50.2244ZM64.2395 44.5903C64.7249 45.0732 65.2104 45.5561 65.6958 46.039C66.0194 45.0732 66.6667 43.7854 66.6667 42.8195C65.8576 43.3025 64.7249 43.7854 64.2395 44.5903ZM36.8932 45.2342C34.7897 49.0976 31.877 52.1561 30.0971 56.3415C30.4207 56.9854 30.7444 57.3073 31.068 57.7903C33.8188 54.2488 35.2751 49.5805 37.8641 45.7171C37.5405 45.5561 37.3787 45.2342 36.8932 45.2342ZM53.2363 54.5707C52.1036 56.0195 50.3236 56.3415 49.0291 57.6293C47.8965 58.7561 46.9256 60.8488 46.1165 62.4585C45.1457 64.2293 44.1748 65.839 43.6893 67.6098C44.6602 67.9317 45.9547 67.9317 47.2492 67.9317C48.3819 62.6195 52.4272 59.239 53.7217 54.4098C53.5599 54.5707 53.3981 54.5707 53.2363 54.5707ZM48.8673 67.9317C49.5146 67.9317 50.1618 67.9317 50.8091 67.9317C51.78 65.3561 54.6926 61.3317 55.9871 58.5951C55.9871 58.4342 56.6343 56.5025 56.6343 56.8244C56.4725 56.1805 55.178 56.1805 55.0162 55.8586C53.2363 60.2049 50.1618 63.1025 48.8673 67.9317ZM32.2007 58.9171C32.6861 59.561 33.3334 60.0439 33.9806 60.6878C34.1424 60.3659 34.3042 60.2049 34.3042 59.722C33.657 59.239 33.657 58.2732 33.0097 57.7903C32.6861 58.2732 32.2007 58.4342 32.2007 58.9171ZM52.4272 68.0927C53.3981 68.2537 54.2071 68.7366 55.5016 68.5756C56.3107 64.8732 58.0906 62.1366 59.3851 58.9171C58.5761 58.5951 58.0906 58.1122 57.4434 57.7903C56.3107 61.6537 53.8835 64.3903 52.4272 68.0927ZM43.2039 59.8829C41.9094 61.9756 40.7767 64.0683 39.8058 66.322C40.7767 66.4829 41.2622 67.1268 42.233 67.2878C43.5275 64.3903 44.9838 61.6537 46.602 59.0781C45.4693 59.239 44.4984 59.722 43.2039 59.8829ZM60.8414 59.561C59.5469 62.6195 57.9288 65.3561 56.958 68.7366C57.9288 68.7366 58.4143 68.5756 59.3851 68.5756C59.8706 65.5171 61.9741 63.1025 63.1068 60.2049C62.1359 60.0439 61.6505 59.722 60.8414 59.561ZM37.2169 64.0683C37.7023 64.3903 38.1877 65.3561 38.835 65.1951C39.3204 63.1025 40.4531 61.8146 41.2622 60.0439C38.3495 59.722 38.6732 62.7805 37.2169 64.0683ZM35.1133 61.4927C35.2751 62.1366 35.9224 62.4585 36.246 62.7805C36.7314 61.9756 37.3787 61.1707 37.7023 60.2049C37.055 60.2049 36.246 60.2049 35.5987 60.2049C35.4369 60.6878 35.2751 61.1707 35.1133 61.4927ZM64.4013 60.6878C63.4304 63.4244 61.8123 65.5171 60.8414 68.2537C61.8123 68.2537 62.2978 67.7707 63.2686 67.7707C64.2395 65.5171 65.2104 63.4244 66.1813 61.1707C65.6958 60.8488 65.2104 60.6878 64.4013 60.6878ZM68.123 61.0098C67.1521 62.9415 66.1813 64.8732 65.3722 66.9659C68.6084 66.6439 68.9321 63.2634 69.9029 60.8488C69.2557 60.8488 68.9321 61.1707 68.123 61.0098Z" fill="#9EAF7C"/>
<path fill-rule="evenodd" clip-rule="evenodd" d="M33.9807 17.7073C33.8189 17.8683 33.6571 17.8683 33.4953 18.0293C31.7154 17.3854 31.5536 14.9707 29.6118 14.3268C30.9063 11.5903 33.6571 15.9366 33.9807 17.7073Z" fill="#9EAF7C"/>
<path fill-rule="evenodd" clip-rule="evenodd" d="M31.0681 20.1219C29.9354 21.7317 29.4499 19.478 28.4791 18.3512C28.1554 18.0293 26.2137 16.4195 28.1554 16.2585C29.4499 16.0975 30.7444 18.9951 31.0681 20.1219Z" fill="#9EAF7C"/>
<path fill-rule="evenodd" clip-rule="evenodd" d="M29.2881 22.6975C29.1263 22.8585 29.1263 22.8585 28.9645 23.0195C27.9936 23.3414 27.5082 22.3756 26.8609 21.5707C26.3755 20.9268 24.1101 18.6732 26.3755 18.8341C27.1845 18.8341 28.9645 21.7317 29.2881 22.6975Z" fill="#9EAF7C"/>
<path fill-rule="evenodd" clip-rule="evenodd" d="M27.508 25.5951C26.5372 26.8829 25.5663 24.7902 24.7572 23.8244C23.9482 22.8585 22.9773 22.2146 22.9773 21.4097C23.9482 19.961 25.2427 22.0536 26.0517 23.1805C26.699 23.9854 27.508 24.7902 27.508 25.5951Z" fill="#9EAF7C"/>
<path fill-rule="evenodd" clip-rule="evenodd" d="M7.44352 22.0537C8.5762 22.0537 7.60533 24.3073 7.2817 25.7561C6.63445 29.6195 5.98721 34.4488 6.31083 39.2781C6.47264 41.8537 7.60533 44.4293 8.25258 47.0049C8.73801 48.9366 9.06164 50.5463 9.8707 51.9951C10.518 53.4439 11.8124 54.0878 11.4888 55.8585C10.1943 56.1805 9.38526 54.2488 8.73801 53.122C8.09077 51.9951 7.44352 50.3854 7.11989 49.0976C6.31083 46.2 5.17814 42.8195 4.85452 39.922C4.36908 33.322 5.01633 27.0439 6.79627 22.2146C7.2817 22.2146 7.44352 21.7317 7.44352 22.0537Z" fill="#9EAF7C"/>
<path fill-rule="evenodd" clip-rule="evenodd" d="M21.0356 24.3073C21.8446 23.6634 23.4627 25.7561 24.11 26.561C24.9191 27.5268 26.2136 29.4585 24.7572 29.6195C24.11 29.6195 23.3009 27.8488 22.6537 27.2049C22.0064 26.4 19.9029 25.1122 21.0356 24.3073Z" fill="#9EAF7C"/>
<path fill-rule="evenodd" clip-rule="evenodd" d="M85.9224 25.9171C85.7606 26.4 84.7897 26.722 84.4661 26.239C84.1425 24.6293 85.9224 24.7903 85.9224 25.9171Z" fill="#9EAF7C"/>
<path fill-rule="evenodd" clip-rule="evenodd" d="M50.6474 26.4C51.6182 28.1708 51.4564 30.7464 51.6182 33.6439C51.78 35.5756 52.4273 37.8293 51.4564 38.9561C49.6765 38.9561 50.3237 36.5415 50.3237 34.7708C50.3237 33 50.1619 31.0683 50.0001 29.6195C49.8383 28.4927 49.3529 27.5269 49.6765 26.883C49.6765 26.2391 50.3237 26.4 50.6474 26.4Z" fill="#9EAF7C"/>
<path fill-rule="evenodd" clip-rule="evenodd" d="M23.1392 32.3561C22.9774 32.3561 22.8155 32.5171 22.8155 32.6781C21.6829 32.6781 21.1974 31.5512 20.712 30.9073C20.2265 30.2634 19.4175 29.4585 19.4175 28.4927C20.712 27.0439 22.6537 31.2293 23.1392 32.3561Z" fill="#9EAF7C"/>
<path fill-rule="evenodd" clip-rule="evenodd" d="M22.492 37.0244C20.5503 36.7025 20.2266 34.9317 18.9321 33.9659C19.4176 31.3903 23.7865 36.3805 22.492 37.0244Z" fill="#9EAF7C"/>
<path fill-rule="evenodd" clip-rule="evenodd" d="M95.1458 34.6098C95.9549 34.2878 96.6021 37.6683 96.7639 38.6342C97.2494 42.0147 97.0875 46.2 97.2494 50.3854C97.573 56.6634 96.7639 61.3317 94.984 66C94.4985 67.4488 93.3659 69.0586 92.5568 70.3464C91.7477 71.7952 91.4241 73.7269 89.9678 74.0488C88.8351 73.5659 89.806 72.6 90.1296 72.1171C92.5568 67.7708 95.3076 62.4586 95.9549 56.0195C96.1167 54.2488 95.793 52.4781 95.6312 50.3854C95.3076 46.522 95.6312 42.3366 95.3076 39.1171C95.1458 37.5073 94.3367 36.3805 94.8222 34.9317C94.8222 34.7708 94.984 34.7708 95.1458 34.6098Z" fill="#9EAF7C"/>
<path fill-rule="evenodd" clip-rule="evenodd" d="M61.3269 38.7952C60.6796 39.4391 59.8706 39.6 58.5761 39.761C56.6343 40.083 54.2071 42.1756 53.0745 40.5659C53.7217 39.2781 56.958 38.9561 59.2233 38.1513C59.8706 37.9903 60.356 37.3464 60.8415 37.1854C61.9741 36.8635 64.8868 36.2195 64.7249 37.5074C64.4013 38.7952 62.6214 38.4732 61.3269 38.7952Z" fill="#9EAF7C"/>
<path fill-rule="evenodd" clip-rule="evenodd" d="M1.45638 37.3463C2.10363 37.9902 1.45638 38.4732 1.45638 39.278C1.45638 41.2098 3.39813 43.1415 2.10363 44.2683C0.323692 43.3024 -0.647182 39.439 0.485504 37.1854C0.809129 37.1854 1.29457 37.1854 1.45638 37.3463Z" fill="#9EAF7C"/>
<path fill-rule="evenodd" clip-rule="evenodd" d="M36.0842 38.3122C36.0842 37.6683 36.4079 37.3464 37.2169 37.3464C38.6732 37.5074 40.1295 38.4732 41.7477 38.7952C43.204 39.1171 45.3075 39.2781 46.602 39.4391C47.8965 39.6 49.3528 39.4391 49.191 40.4049C49.0292 41.3708 47.8965 40.8878 47.4111 40.7269C43.0422 40.5659 39.1587 39.922 36.0842 38.3122Z" fill="#9EAF7C"/>
<path fill-rule="evenodd" clip-rule="evenodd" d="M50.8092 41.8537C49.1911 39.278 53.8837 41.0488 50.8092 41.8537V41.8537Z" fill="#9EAF7C"/>
<path fill-rule="evenodd" clip-rule="evenodd" d="M50.1619 43.1415C50.0001 45.0732 48.5438 45.3952 47.5729 46.522C46.6021 48.1317 45.4694 49.4195 44.1749 50.7073C42.8804 51.9952 41.7477 53.4439 39.9678 54.0878C38.9969 53.122 40.2914 52.3171 40.9386 51.8342C42.8804 50.0634 44.9839 47.8098 46.4403 45.5561C47.4111 44.7513 48.2202 43.9464 49.0292 42.9805C49.0292 42.8195 49.3529 42.8195 49.3529 42.6586C49.8383 42.6586 49.8383 42.9805 50.1619 43.1415Z" fill="#9EAF7C"/>
<path fill-rule="evenodd" clip-rule="evenodd" d="M22.9774 45.7171C22.8156 45.8781 22.6537 45.8781 22.4919 46.039C21.1974 45.5561 20.712 44.5903 20.2266 43.3025C21.3592 42.1756 22.6537 44.4293 22.9774 45.7171Z" fill="#9EAF7C"/>
<path fill-rule="evenodd" clip-rule="evenodd" d="M65.3723 55.6976C63.1069 55.8586 61.9743 53.7659 60.5179 52.3171C59.2234 51.1903 57.6053 49.9025 55.9872 48.4537C55.5018 47.9708 51.7801 45.0732 51.9419 44.1073C51.9419 43.6244 52.1037 43.7854 52.4273 43.4634C53.7218 43.7854 55.6636 46.039 56.9581 47.3269C58.4144 48.7756 60.1943 50.0634 61.4888 51.1903C62.1361 51.8342 62.7833 52.8 63.4306 53.4439C64.4014 54.0878 65.8578 53.9269 65.3723 55.6976Z" fill="#9EAF7C"/>
<path fill-rule="evenodd" clip-rule="evenodd" d="M87.3786 58.5952C85.7605 59.0781 85.4369 56.5025 84.9514 55.6976C86.2459 54.2488 87.7022 57.1464 87.3786 58.5952Z" fill="#9EAF7C"/>
<path fill-rule="evenodd" clip-rule="evenodd" d="M99.8384 56.3415C100.324 58.5951 100 61.0097 99.3529 63.5854C99.0293 64.5512 98.7057 66.3219 98.0584 66.4829C96.4403 66.6439 98.2203 62.4585 98.3821 60.6878C98.5439 59.239 98.3821 57.6293 98.7057 56.5024C98.8675 56.1805 99.5148 56.1805 99.8384 56.3415Z" fill="#9EAF7C"/>
<path fill-rule="evenodd" clip-rule="evenodd" d="M83.4952 67.1268C82.5243 68.5756 82.0389 66.8049 81.7152 66.161C81.2298 65.1951 79.4499 63.5854 79.6117 62.7805C80.0971 60.6878 82.0389 64.0683 82.3625 64.5512C83.0097 65.3561 83.3334 65.839 83.4952 67.1268Z" fill="#9EAF7C"/>
<path fill-rule="evenodd" clip-rule="evenodd" d="M42.5568 92.239C41.1005 92.4 40.615 90.6293 39.806 89.6634C38.9969 88.5366 38.1879 87.4098 37.3788 86.6049C35.2752 82.9024 33.1717 79.8439 30.7445 76.1415C29.1264 73.7268 27.5082 71.3122 25.7283 68.2537C25.2429 67.4488 23.4629 65.0341 25.0811 64.8732C26.0519 64.8732 26.6992 67.1268 27.1846 67.9317C30.7445 73.7268 35.1134 80.3268 39.3205 86.122C39.9678 87.0878 40.7769 88.0537 41.4241 89.0195C41.7477 89.9854 43.0422 91.1122 42.5568 92.239Z" fill="#9EAF7C"/>
<path fill-rule="evenodd" clip-rule="evenodd" d="M79.288 65.1951C79.7734 65.839 80.097 66.9658 80.4207 67.9317C80.7443 68.7366 81.877 69.7024 80.7443 70.3463C79.9352 70.3463 76.5372 65.0341 79.288 65.1951Z" fill="#9EAF7C"/>
<path fill-rule="evenodd" clip-rule="evenodd" d="M79.2882 71.9561C79.1264 72.278 78.8028 72.439 78.6409 72.6C76.861 71.6341 76.3756 69.5415 75.8901 67.4488C76.0519 67.4488 76.5374 66.8049 76.6992 67.1268C78.1555 68.2537 78.3173 70.5073 79.2882 71.9561Z" fill="#9EAF7C"/>
<path fill-rule="evenodd" clip-rule="evenodd" d="M77.3464 76.1415C76.0519 76.6244 75.8901 75.3366 75.5665 74.5317C74.9193 73.2439 74.1102 71.6342 73.6248 70.3464C74.9193 68.5756 75.7283 71.4732 76.3756 72.761C77.0228 74.3708 77.8319 75.4976 77.3464 76.1415Z" fill="#9EAF7C"/>
<path fill-rule="evenodd" clip-rule="evenodd" d="M74.9191 79.5219C73.4628 79.5219 73.301 77.9122 72.8156 76.9463C72.0065 75.1756 71.1974 73.7268 70.2266 72.278C71.5211 70.6683 72.9774 73.7268 73.7864 75.1756C74.5955 76.7854 75.4046 78.5561 74.9191 79.5219Z" fill="#9EAF7C"/>
<path fill-rule="evenodd" clip-rule="evenodd" d="M67.7993 75.3366C69.2556 74.0488 70.2265 77.1073 70.8737 78.5561C71.3592 79.5219 73.1391 82.2585 71.8446 82.5805C70.7119 82.9024 70.0647 79.8439 69.5792 79.039C68.932 77.7512 68.2848 76.9463 67.7993 75.3366Z" fill="#9EAF7C"/>
<path fill-rule="evenodd" clip-rule="evenodd" d="M66.505 79.361C67.4759 81.1317 69.4176 83.2244 69.094 85.3171C68.9322 85.3171 68.9322 85.3171 68.7704 85.4781C67.6377 85.4781 67.4759 84.1903 67.1522 83.3854C66.6668 82.2586 65.5341 81.1317 65.3723 79.683C65.6959 79.361 66.0196 79.2 66.505 79.361Z" fill="#9EAF7C"/>
<path fill-rule="evenodd" clip-rule="evenodd" d="M34.628 95.2976C33.3335 94.9756 32.2008 93.8488 31.3917 92.883C29.1264 90.1464 27.1846 87.0878 25.4047 84.1903C24.7574 83.0634 23.6248 81.9366 23.6248 80.4878C24.7574 79.361 25.7283 82.0976 26.3756 83.0634C28.1555 86.122 30.2591 89.3415 32.3626 91.7561C33.3335 92.8829 35.2752 93.5269 34.628 95.2976Z" fill="#9EAF7C"/>
<path fill-rule="evenodd" clip-rule="evenodd" d="M67.1522 89.0195C66.0195 90.1463 65.5341 88.5366 65.0486 87.2488C64.4014 85.639 62.9451 83.8683 62.9451 82.5805C63.2687 82.2585 63.4305 82.0975 63.9159 82.2585C65.2104 84.3512 66.5049 86.4439 67.1522 89.0195Z" fill="#9EAF7C"/>
<path fill-rule="evenodd" clip-rule="evenodd" d="M60.5178 84.1903C61.8123 82.7415 62.4596 85.3171 63.1068 86.7659C63.7541 88.2147 64.4013 89.1805 64.7249 89.9854C65.0486 90.9512 65.0486 91.7561 64.4013 91.7561C63.4304 91.9171 62.6214 88.6976 62.2978 87.8927C61.6505 86.6049 60.6796 85.4781 60.5178 84.1903Z" fill="#9EAF7C"/>
<path fill-rule="evenodd" clip-rule="evenodd" d="M77.67 85.1561C77.9936 86.7659 76.8609 88.5366 76.2136 89.8244C75.5664 91.1122 74.9191 92.8829 73.6246 93.2049C72.492 92.4 74.1101 90.4683 74.5955 89.3415C75.2428 88.0537 76.0518 86.7659 76.3755 85.3171C76.3755 85.1561 76.5373 85.1561 76.6991 84.9951C77.1845 84.9951 77.3463 85.1561 77.67 85.1561Z" fill="#9EAF7C"/>
<path fill-rule="evenodd" clip-rule="evenodd" d="M62.2979 94.4927C60.518 94.8146 60.1943 92.4 59.7089 91.1122C59.0616 89.5024 58.2526 88.0537 57.929 86.7658C59.2235 85.478 60.3561 88.6976 61.0034 90.1463C61.6506 91.9171 62.4597 93.3658 62.2979 94.4927Z" fill="#9EAF7C"/>
<path fill-rule="evenodd" clip-rule="evenodd" d="M59.2234 98.8391C57.6053 98.5171 57.9289 96.1025 57.4435 94.6537C56.958 93.2049 55.6635 92.0781 55.5017 90.7903C56.4726 89.1805 58.2525 92.561 58.738 93.8488C59.3852 95.6195 59.8706 97.8732 59.2234 98.8391Z" fill="#9EAF7C"/>
<path fill-rule="evenodd" clip-rule="evenodd" d="M51.7799 92.0781C52.7508 91.5952 54.3689 95.1366 55.0161 96.5854C55.8252 98.0342 57.6051 101.576 56.3106 101.898C55.1779 102.22 54.2071 98.1952 53.7216 97.2293C53.2362 96.2635 52.7508 95.4586 52.4271 94.8147C51.9417 94.0098 50.809 92.561 51.7799 92.0781Z" fill="#9EAF7C"/>
<path fill-rule="evenodd" clip-rule="evenodd" d="M54.369 105.6C53.8836 105.922 53.2363 105.6 53.2363 105.117C53.0745 105.439 52.9127 105.761 52.2654 105.6C50.6473 104.473 49.191 103.024 47.7347 101.415C47.0874 100.61 45.9548 99.8049 46.2784 98.6781C47.8965 98.3561 48.5438 100.288 49.3528 101.254C50.3237 102.381 51.6182 103.185 52.4273 104.151C51.78 101.898 49.5146 98.8391 47.8965 96.1025C47.7347 95.7805 45.4693 92.722 47.4111 92.722C48.0583 92.722 49.0292 94.9756 49.5146 95.7805C50.8091 97.8732 51.9418 99.8049 53.2363 102.059C54.0454 103.185 54.8544 104.312 54.369 105.6Z" fill="#9EAF7C"/>
<path fill-rule="evenodd" clip-rule="evenodd" d="M44.1748 95.9415C44.4984 93.2049 46.4402 97.0683 44.1748 95.9415V95.9415Z" fill="#9EAF7C"/>
<path fill-rule="evenodd" clip-rule="evenodd" d="M53.2362 113.488C53.2362 114.937 50.4854 114.776 49.1909 114.454C48.22 114.132 47.7346 113.166 47.8964 112.522C48.7054 111.878 49.1909 112.683 49.8381 113.005C50.9708 113.005 52.7508 112.522 53.2362 113.488Z" fill="#9EAF7C"/>
<path fill-rule="evenodd" clip-rule="evenodd" d="M45.4694 118.156C45.1457 119.444 43.8512 120.249 43.0422 121.215C41.424 123.146 39.4823 124.917 37.5406 126.688C36.5697 127.493 35.9224 128.942 34.4661 129.102C33.4952 127.815 35.1134 127.01 36.0842 126.044C36.8933 125.239 37.8642 124.434 38.6732 123.629C40.7768 121.537 42.2331 119.283 44.1749 117.995C44.4985 117.834 45.3075 117.512 45.4694 118.156Z" fill="#9EAF7C"/>
<path fill-rule="evenodd" clip-rule="evenodd" d="M38.5114 129.907C37.5405 128.137 39.8059 127.493 40.9386 126.205C43.5276 123.629 45.3075 119.927 48.0583 118.478C48.5438 118.156 49.0292 118.961 49.0292 118.961C49.3528 119.927 47.2493 120.893 46.7638 121.376C44.9839 123.146 43.0422 126.205 40.7768 128.137C40.2914 128.78 39.4823 129.746 38.5114 129.907Z" fill="#9EAF7C"/>
<path fill-rule="evenodd" clip-rule="evenodd" d="M52.1037 119.927C52.1037 121.054 50.9711 121.859 50.3238 122.824C49.6766 123.629 49.0293 124.595 48.2202 125.239C46.6021 127.01 44.6604 128.459 43.5277 129.746C42.8804 130.39 42.5568 131.839 41.5859 130.551C42.395 128.137 44.6604 126.849 46.2785 125.239C47.8966 123.307 49.3529 121.376 51.2947 119.605C51.6183 119.605 51.7801 119.927 52.1037 119.927Z" fill="#9EAF7C"/>
<path fill-rule="evenodd" clip-rule="evenodd" d="M34.3042 123.79C33.3333 123.951 33.0097 125.883 31.2297 125.883C30.4207 124.917 31.7152 123.951 32.686 122.985C33.6569 122.02 35.1132 120.088 36.2459 121.376C36.8932 120.893 37.7022 120.088 38.5113 120.893C38.6731 121.698 38.1877 122.02 37.5404 122.181C35.5987 124.112 34.3042 126.688 31.5534 127.815C31.3915 127.654 31.2297 127.493 31.0679 127.493C31.5534 125.4 33.6569 125.239 34.3042 123.79Z" fill="#9EAF7C"/>
<path fill-rule="evenodd" clip-rule="evenodd" d="M60.5178 121.215C60.356 122.181 59.547 122.341 58.8997 122.985C57.767 123.951 56.958 125.239 55.8253 126.205C54.6926 127.171 53.3981 128.137 52.4272 129.102C51.78 129.746 51.4563 131.034 50.3236 130.873C49.6764 128.781 52.2654 127.493 53.7217 126.366C55.6635 124.595 57.2816 122.502 59.2233 120.893C60.0324 120.41 60.356 120.732 60.5178 121.215Z" fill="#9EAF7C"/>
<path fill-rule="evenodd" clip-rule="evenodd" d="M55.5016 121.698C55.3398 122.824 54.2071 123.468 53.3981 124.112C51.4563 125.883 49.5146 128.137 47.2492 129.907C47.411 130.712 44.822 132.644 44.9838 130.712C44.9838 129.907 46.4402 128.62 46.9256 128.298C47.8965 127.332 48.8673 126.688 50 125.561C51.9418 123.79 52.589 122.341 54.369 121.376C54.6926 121.054 55.5016 121.376 55.5016 121.698Z" fill="#9EAF7C"/>
<path fill-rule="evenodd" clip-rule="evenodd" d="M62.945 122.341C61.9742 123.951 60.356 125.239 59.0615 126.527C57.6052 127.815 56.3107 129.102 54.8544 130.39C54.6926 131.195 54.5308 132 53.8835 132C52.1036 132 53.7217 129.746 54.2072 129.263C56.6344 126.527 60.0324 123.951 61.9742 121.859C62.4596 121.698 62.6214 122.02 62.945 122.341Z" fill="#9EAF7C"/>
<path fill-rule="evenodd" clip-rule="evenodd" d="M58.0906 130.873C57.767 130.873 57.767 130.551 57.4434 130.551C57.6052 128.298 59.2233 127.171 61.165 125.561C62.4595 124.434 63.5922 123.307 64.4013 122.502C64.5631 122.502 64.7249 122.502 64.8867 122.502C66.0194 123.468 63.5922 125.4 62.4595 126.366C60.6796 128.298 59.5469 129.263 58.0906 130.873Z" fill="#9EAF7C"/>
<path fill-rule="evenodd" clip-rule="evenodd" d="M66.5049 125.078C66.9904 126.205 65.8577 127.01 64.725 127.976C63.916 128.781 62.2978 131.195 61.4888 129.746C62.136 128.459 64.2396 125.883 65.6959 125.078C65.8577 124.917 66.3431 125.078 66.5049 125.078Z" fill="#9EAF7C"/>
</g>
<defs>
<clipPath id="clip0_15_4949">
<rect width="100" height="132" fill="white"/>
</clipPath>
</defs>
</svg>
