<svg width="573" height="7" viewBox="0 0 573 7" fill="none" xmlns="http://www.w3.org/2000/svg">
<path d="M286.5 1C300.78 1 300.78 6 315.06 6C329.34 6 329.34 1 343.62 1C357.9 1 357.9 6 372.147 6C386.427 6 386.427 1 400.673 1C414.954 1 414.954 6 429.2 6C443.48 6 443.48 1 457.759 1C472.04 1 472.04 6 486.32 6C500.599 6 500.599 1 514.88 1C529.16 1 529.16 6 543.44 6C557.72 6 557.72 1 572 1" stroke="#9EAF7C" stroke-width="2" stroke-miterlimit="10" stroke-linecap="round"/>
<path d="M1 1C15.28 1 15.28 6 29.5601 6C43.8401 6 43.8401 1 58.1201 1C72.4001 1 72.4001 6 86.6467 6C100.927 6 100.927 1 115.173 1C129.454 1 129.454 6 143.7 6C157.98 6 157.98 1 172.259 1C186.54 1 186.54 6 200.82 6C215.099 6 215.099 1 229.38 1C243.66 1 243.66 6 257.94 6C272.22 6 272.22 1 286.5 1" stroke="#9EAF7C" stroke-width="2" stroke-miterlimit="10" stroke-linecap="round"/>
</svg>
